%FSLAX33Y33*%
%MOMM*%
%AMRect-W800000-H1700000-RO1.500*
21,1,0.8,1.7,0.,0.,90*%
%AMRect-W1752833-H382672-RO1.000*
21,1,1.752833,0.382672,0.,0.,180*%
%AMRR-H382672-W1752833-R191336-RO1.000*
21,1,1.370161,0.382672,0.,0.,180*
1,1,0.382672,0.6850805,-0.*
1,1,0.382672,-0.6850805,-0.*
1,1,0.382672,-0.6850805,0.*
1,1,0.382672,0.6850805,0.*%
%AMRect-W900000-H950000-RO0.500*
21,1,0.9,0.95,0.,0.,270*%
%AMRect-W600000-H1250000-RO0.500*
21,1,0.6,1.25,0.,0.,270*%
%AMRect-W300000-H600000-RO1.500*
21,1,0.3,0.6,0.,0.,90*%
%AMRect-W800000-H800000-RO0.500*
21,1,0.8,0.8,0.,0.,270*%
%AMRect-W900000-H800000-RO0.500*
21,1,0.9,0.8,0.,0.,270*%
%AMRect-W800000-H1700000-RO0.500*
21,1,0.8,1.7,0.,0.,270*%
%AMRect-W800000-H800000-RO1.500*
21,1,0.8,0.8,0.,0.,90*%
%AMRect-W854139-H954975-RO1.500*
21,1,0.854139,0.954975,0.,0.,90*%
%AMRect-W1004294-H872132-RO1.500*
21,1,1.004294,0.872132,0.,0.,90*%
%AMRR-H872132-W1004294-R436066-RO1.500*
21,1,0.132162,0.872132,0.,0.,90*
1,1,0.872132,-0.,-0.066081*
1,1,0.872132,-0.,0.066081*
1,1,0.872132,0.,0.066081*
1,1,0.872132,0.,-0.066081*%
%AMRR-H3182132-W1004294-R436066-RO1.500*
21,1,0.132162,3.182132,0.,0.,90*
21,1,1.004294,2.31,0.,0.,90*
1,1,0.872132,-1.155,-0.066081*
1,1,0.872132,-1.155,0.066081*
1,1,0.872132,1.155,0.066081*
1,1,0.872132,1.155,-0.066081*%
%AMRect-W800000-H800000-RO1.000*
21,1,0.8,0.8,0.,0.,180*%
%AMRect-W900000-H800000-RO1.500*
21,1,0.9,0.8,0.,0.,90*%
%AMRect-W500000-H900000-RO1.000*
21,1,0.5,0.9,0.,0.,180*%
%AMRect-W2500000-H2300000-RO0.500*
21,1,2.5,2.3,0.,0.,270*%
%AMRect-W2500000-H2300000-RO1.500*
21,1,2.5,2.3,0.,0.,90*%
%AMRect-W900000-H800000-RO1.000*
21,1,0.9,0.8,0.,0.,180*%
%AMRect-W1500000-H900000-RO1.500*
21,1,1.5,0.9,0.,0.,90*%
%AMRect-W900000-H1700000-RO1.000*
21,1,0.9,1.7,0.,0.,180*%
%AMRect-W500000-H600000-RO1.500*
21,1,0.5,0.6,0.,0.,90*%
%AMRect-W1400000-H2800000-RO1.000*
21,1,1.4,2.8,0.,0.,180*%
%AMRect-W854139-H954975-RO1.000*
21,1,0.854139,0.954975,0.,0.,180*%
%AMRect-W500000-H900000-RO1.500*
21,1,0.5,0.9,0.,0.,90*%
%ADD10R,0.9X1.7*%
%ADD11Rect-W800000-H1700000-RO1.500*%
%ADD12Rect-W1752833-H382672-RO1.000*%
%ADD13RR-H382672-W1752833-R191336-RO1.000*%
%ADD14Rect-W900000-H950000-RO0.500*%
%ADD15Rect-W600000-H1250000-RO0.500*%
%ADD16Rect-W300000-H600000-RO1.500*%
%ADD17Rect-W800000-H800000-RO0.500*%
%ADD18Rect-W900000-H800000-RO0.500*%
%ADD19Rect-W800000-H1700000-RO0.500*%
%ADD20Rect-W800000-H800000-RO1.500*%
%ADD21Rect-W854139-H954975-RO1.500*%
%ADD22Rect-W1004294-H872132-RO1.500*%
%ADD23RR-H872132-W1004294-R436066-RO1.500*%
%ADD24RR-H3182132-W1004294-R436066-RO1.500*%
%ADD25R,0.7X0.7*%
%ADD26Rect-W800000-H800000-RO1.000*%
%ADD27Rect-W900000-H800000-RO1.500*%
%ADD28R,0.5X0.9*%
%ADD29Rect-W500000-H900000-RO1.000*%
%ADD30Rect-W2500000-H2300000-RO0.500*%
%ADD31R,1.96X3.39*%
%ADD32Rect-W2500000-H2300000-RO1.500*%
%ADD33Rect-W900000-H800000-RO1.000*%
%ADD34R,4.099999X4.099999*%
%ADD35R,0.9X1.5*%
%ADD36R,1.5X0.9*%
%ADD37R,0.9X0.8*%
%ADD38Rect-W1500000-H900000-RO1.500*%
%ADD39Rect-W900000-H1700000-RO1.000*%
%ADD40R,3.5X1.6*%
%ADD41Rect-W500000-H600000-RO1.500*%
%ADD42Rect-W1400000-H2800000-RO1.000*%
%ADD43R,0.4X1.35*%
%ADD44R,1.6X1.4*%
%ADD45R,1.45X1.3*%
%ADD46R,1.9X1.9*%
%ADD47Rect-W854139-H954975-RO1.000*%
%ADD48Rect-W500000-H900000-RO1.500*%
%ADD49R,0.95X1.4*%
D10*
%LNtop paste_traces*%
%LNtop paste component 0482f48a0a855ddf*%
G01*
X-67175Y-9650D03*
X-64275Y-9650D03*
%LNtop paste component 6813cacbefd1e2b9*%
D11*
X-43925Y-25900D03*
X-43925Y-22500D03*
%LNtop paste component 3db6a5b20525de24*%
D12*
X-47475Y-13500D03*
D13*
X-47475Y-12850D03*
X-47475Y-12200D03*
X-47475Y-11550D03*
X-47475Y-10900D03*
X-47475Y-10250D03*
X-47475Y-9600D03*
X-47475Y-8950D03*
X-47475Y-8300D03*
X-47475Y-7650D03*
X-47475Y-7000D03*
X-47475Y-6350D03*
X-47475Y-5700D03*
X-47475Y-5050D03*
X-54225Y-5050D03*
X-54225Y-5700D03*
X-54225Y-6350D03*
X-54225Y-7000D03*
X-54225Y-7650D03*
X-54225Y-8300D03*
X-54225Y-8950D03*
X-54225Y-9600D03*
X-54225Y-10250D03*
X-54225Y-10900D03*
X-54225Y-11550D03*
X-54225Y-12200D03*
X-54225Y-12850D03*
X-54225Y-13500D03*
%LNtop paste component e5f8c1f535fec6ea*%
D14*
X-52025Y-20200D03*
X-52025Y-23350D03*
%LNtop paste component 252a53037974c115*%
D15*
X-71575Y20705D03*
X-71575Y18905D03*
%LNtop paste component fe80ee474570cac8*%
D16*
X-48700Y-23600D03*
X-48700Y-22900D03*
%LNtop paste component 10b1d0880790c1b8*%
D17*
X-54325Y-22500D03*
X-54325Y-24000D03*
%LNtop paste component 7dfbba8ca001c3b6*%
D18*
X-103125Y-15430D03*
X-105025Y-15430D03*
X-104075Y-17430D03*
%LNtop paste component 874acaaaf3958b77*%
D19*
X-57675Y-22500D03*
X-57675Y-25900D03*
%LNtop paste component e8ebb05cec54ac0d*%
D20*
X-47125Y-24000D03*
X-47125Y-22500D03*
%LNtop paste component c153c2d1b3039095*%
D21*
X-74048Y-10973D03*
X-74048Y-9672D03*
%LNtop paste component e17a0e78ec20d950*%
D22*
X-83190Y-14895D03*
D23*
X-80900Y-14895D03*
X-78610Y-14895D03*
D24*
X-80900Y-8305D03*
%LNtop paste component 2322a58d1cfe3815*%
D25*
X-45850Y-11550D03*
X-44450Y-11550D03*
%LNtop paste component 69f7728837d07548*%
D26*
X-61550Y-13225D03*
X-63050Y-13225D03*
%LNtop paste component ccbb334a3726f3a3*%
D27*
X-105050Y-5500D03*
X-103150Y-5500D03*
X-104100Y-3500D03*
%LNtop paste component cb29e8d30bbfcf00*%
D28*
X-51550Y-16200D03*
X-50050Y-16200D03*
%LNtop paste component cdd3a1667d55a24f*%
D29*
X-24730Y-8450D03*
X-26230Y-8450D03*
%LNtop paste component 9bccb15b690cf48e*%
X-31265Y-15300D03*
X-32765Y-15300D03*
%LNtop paste component e0f57ae9b30cb9e8*%
D30*
X-108400Y-12330D03*
X-108400Y-16630D03*
%LNtop paste component e1627baf1bdf1fe8*%
D16*
X-50250Y-23600D03*
X-50250Y-22900D03*
%LNtop paste component 56bb46b189b3895e*%
D29*
X-103550Y-7475D03*
X-105050Y-7475D03*
%LNtop paste component 9fbc797a11fedfa8*%
D21*
X-73350Y19155D03*
X-73350Y20456D03*
%LNtop paste component 1b8a31d8bfee9382*%
D31*
X-93005Y-10325D03*
X-86195Y-10325D03*
%LNtop paste component 4c982ed5264ea73b*%
D29*
X-50050Y-18100D03*
X-51550Y-18100D03*
%LNtop paste component 10c78444f405e5b2*%
D22*
X-83215Y-23445D03*
D23*
X-80925Y-23445D03*
X-78635Y-23445D03*
D24*
X-80925Y-16855D03*
%LNtop paste component 33150007373fcac5*%
D32*
X-108400Y-8600D03*
X-108400Y-4300D03*
%LNtop paste component b82c1ab224868cec*%
D33*
X-52575Y-18100D03*
X-52575Y-16200D03*
X-54575Y-17150D03*
%LNtop paste component 90b1addd98e51485*%
D34*
X-60625Y11775D03*
D35*
X-65685Y2525D03*
X-64415Y2525D03*
X-63145Y2525D03*
X-61875Y2525D03*
X-60605Y2525D03*
X-59335Y2525D03*
X-58065Y2525D03*
X-56795Y2525D03*
X-55525Y2525D03*
X-54255Y2525D03*
D36*
X-68875Y20425D03*
X-68875Y19155D03*
X-68875Y17885D03*
X-68875Y16615D03*
X-68875Y15345D03*
X-68875Y14075D03*
X-68875Y12805D03*
X-68875Y11535D03*
X-68875Y10265D03*
X-68875Y8995D03*
X-68875Y7725D03*
X-68875Y6455D03*
X-68875Y5185D03*
X-68875Y3915D03*
X-51075Y3915D03*
X-51075Y5185D03*
X-51075Y6455D03*
X-51075Y7725D03*
X-51075Y8995D03*
X-51075Y10265D03*
X-51075Y11535D03*
X-51075Y12805D03*
X-51075Y14075D03*
X-51075Y15345D03*
X-51075Y16615D03*
X-51075Y17885D03*
X-51075Y19155D03*
X-51075Y20425D03*
%LNtop paste component cea296ead8353e7d*%
D37*
X-48975Y-16200D03*
X-48975Y-18100D03*
X-46975Y-17150D03*
%LNtop paste component 3f845e058fdd5e1f*%
D28*
X-70725Y-0925D03*
X-69225Y-0925D03*
%LNtop paste component 707d07d50a841e56*%
D38*
X-67275Y-5825D03*
X-63975Y-5825D03*
X-63975Y-0925D03*
X-67275Y-0925D03*
%LNtop paste component ff541e940e5d7fe4*%
D39*
X-64275Y-11800D03*
X-67175Y-11800D03*
%LNtop paste component d0480286b2d570aa*%
D40*
X-92325Y-17800D03*
X-86925Y-17800D03*
%LNtop paste component 572823f635f88fe9*%
D41*
X-54325Y-21450D03*
X-54325Y-20450D03*
%LNtop paste component cdbf310ff226334c*%
D26*
X-61550Y-10375D03*
X-63050Y-10375D03*
%LNtop paste component 498e91e107611f94*%
D42*
X-73950Y-17125D03*
X-76550Y-17125D03*
%LNtop paste component b53fcbc86ee9c919*%
D40*
X-92325Y-26050D03*
X-86925Y-26050D03*
%LNtop paste component 9535f7950e9c5dc2*%
D42*
X-73950Y-20600D03*
X-76550Y-20600D03*
%LNtop paste component 56c081ad7e014188*%
D39*
X-64275Y-13950D03*
X-67175Y-13950D03*
%LNtop paste component c598bdc0c98843fc*%
D43*
X-52025Y-25650D03*
X-51375Y-25650D03*
X-50725Y-25650D03*
X-50075Y-25650D03*
X-49425Y-25650D03*
D44*
X-53925Y-25875D03*
X-47525Y-25875D03*
D45*
X-54150Y-28325D03*
X-47300Y-28325D03*
D46*
X-51925Y-28325D03*
X-49525Y-28325D03*
%LNtop paste component 081f6af8756ef78d*%
D47*
X-75202Y-23420D03*
X-76503Y-23420D03*
%LNtop paste component 7e470e73fc1de78b*%
D41*
X-47125Y-21550D03*
X-47125Y-20550D03*
%LNtop paste component 7cb94848dd239724*%
D48*
X-101775Y-16930D03*
X-101775Y-15430D03*
%LNtop paste component d00ebfb179eb73d3*%
D49*
X-75977Y-13475D03*
X-74127Y-13475D03*
%LNtop paste component 9fb37c9d45968661*%
D26*
X-61550Y-11800D03*
X-63050Y-11800D03*
M02*