%FSLAX33Y33*%
%MOMM*%
%AMRect-W1400000-H1400000-RO1.500*
21,1,1.4,1.4,0.,0.,90*%
%AMRect-W1700000-H1700000-RO1.000*
21,1,1.7,1.7,0.,0.,180*%
%AMRect-W1700000-H1700000-RO1.500*
21,1,1.7,1.7,0.,0.,90*%
%AMRect-W1600000-H5100000-RO0.500*
21,1,1.6,5.1,0.,0.,270*%
%AMRR-H4600000-W1600000-R800000-RO0.500*
21,1,1.6,3.,0.,0.,270*
1,1,1.6,1.5,0.*
1,1,1.6,1.5,-0.*
1,1,1.6,-1.5,-0.*
1,1,1.6,-1.5,0.*%
%AMRR-H4600000-W1600000-R800000-RO0.000*
21,1,1.6,3.,0.,0.,360*
1,1,1.6,0.,1.5*
1,1,1.6,0.,1.5*
1,1,1.6,0.,-1.5*
1,1,1.6,-0.,-1.5*%
%AMRect-W1700000-H1700000-RO0.500*
21,1,1.7,1.7,0.,0.,270*%
%ADD10C,0.75*%
%ADD11R,1.7X1.7*%
%ADD12C,1.7*%
%ADD13C,1.4*%
%ADD14Rect-W1400000-H1400000-RO1.500*%
%ADD15C,1.7*%
%ADD16Rect-W1700000-H1700000-RO1.000*%
%ADD17R,1.6X1.6*%
%ADD18C,1.6*%
%ADD19C,1.7*%
%ADD20Rect-W1700000-H1700000-RO1.500*%
%ADD21Rect-W1600000-H5100000-RO0.500*%
%ADD22RR-H4600000-W1600000-R800000-RO0.500*%
%ADD23RR-H4600000-W1600000-R800000-RO0.000*%
%ADD24C,1.7*%
%ADD25Rect-W1700000-H1700000-RO0.500*%
D10*
%LNbottom solder mask_traces*%
G01*
X-51125Y-1200D03*
X-69150Y-17125D03*
X-83190Y-15900D03*
X-67275Y-7925D03*
X-77575Y-22000D03*
X-100625Y-16930D03*
X-48825Y3275D03*
X-49755Y5185D03*
X-52250Y-6466D03*
X-100625Y-8850D03*
X-46000Y-13500D03*
X-71350Y5235D03*
X-80900Y-5950D03*
X-65685Y0850D03*
X-49780Y8995D03*
X-60025Y15300D03*
X-71275Y12805D03*
X-54255Y0625D03*
X-51625Y-12659D03*
X-53225Y12900D03*
X-53825Y19005D03*
X-55525Y-0400D03*
X-60000Y20425D03*
X-71400Y10265D03*
X-53450Y-20200D03*
X-48050Y15325D03*
X-71400Y11535D03*
X-49550Y12900D03*
X-45975Y-1250D03*
X-48775Y16615D03*
X-49025Y-13500D03*
X-49525Y-6541D03*
X-48075Y2300D03*
X-48700Y-22100D03*
X-71350Y8995D03*
X-64425Y0850D03*
X-56900Y-7841D03*
X-49050Y-17150D03*
X-45975Y-3050D03*
X-46025Y-24000D03*
X-45100Y-9600D03*
X-73100Y17875D03*
X-49425Y-12659D03*
%LNbottom solder mask component 41b9db879265162a*%
D11*
X-28340Y15800D03*
D12*
X-25800Y15800D03*
X-23260Y15800D03*
%LNbottom solder mask component aa286b59c486b578*%
D11*
X-21440Y6200D03*
D12*
X-18900Y6200D03*
X-16360Y6200D03*
%LNbottom solder mask component 54130f40f4e52950*%
D11*
X-34270Y20425D03*
D12*
X-31730Y20425D03*
X-29190Y20425D03*
%LNbottom solder mask component 1ba162ace44450bd*%
D13*
X-94135Y24125D03*
X-91595Y24125D03*
X-89055Y24125D03*
X-86515Y24125D03*
X-83975Y24125D03*
D14*
X-96675Y24125D03*
%LNbottom solder mask component 0948399de430e016*%
D15*
X-24970Y-2050D03*
D16*
X-22430Y-2050D03*
%LNbottom solder mask component 0d00b0983ae96748*%
D11*
X-25130Y-10675D03*
D12*
X-22590Y-10675D03*
X-20050Y-10675D03*
%LNbottom solder mask component 47b0c5916d82fa2f*%
D17*
X-40060Y6650D03*
D18*
X-37520Y6650D03*
X-34980Y6650D03*
X-32440Y6650D03*
%LNbottom solder mask component 5bd49bef55a165bf*%
D19*
X-112600Y-4300D03*
D20*
X-112600Y-6840D03*
%LNbottom solder mask component 07d7061eb338d36e*%
D21*
X-79475Y-25925D03*
D22*
X-79475Y-31925D03*
D23*
X-74775Y-28925D03*
%LNbottom solder mask component ca64192462e6d2e1*%
D11*
X-23790Y11400D03*
D12*
X-21250Y11400D03*
X-18710Y11400D03*
%LNbottom solder mask component fb931288130509ae*%
D11*
X-31665Y-17525D03*
D12*
X-29125Y-17525D03*
X-26585Y-17525D03*
%LNbottom solder mask component 0e613b1f698022c6*%
D24*
X-112625Y-16620D03*
D25*
X-112625Y-14080D03*
M02*