%FSLAX33Y33*%
%MOMM*%
%AMRect-W800000-H1700000-RO1.500*
21,1,0.8,1.7,0.,0.,90*%
%AMRect-W1752833-H382672-RO1.000*
21,1,1.752833,0.382672,0.,0.,180*%
%AMRR-H382672-W1752833-R191336-RO1.000*
21,1,1.370161,0.382672,0.,0.,180*
1,1,0.382672,0.6850805,-0.*
1,1,0.382672,-0.6850805,-0.*
1,1,0.382672,-0.6850805,0.*
1,1,0.382672,0.6850805,0.*%
%AMRect-W900000-H950000-RO0.500*
21,1,0.9,0.95,0.,0.,270*%
%AMRect-W600000-H1250000-RO0.500*
21,1,0.6,1.25,0.,0.,270*%
%AMRect-W400000-H700000-RO1.500*
21,1,0.4,0.7,0.,0.,90*%
%AMRect-W800000-H800000-RO0.500*
21,1,0.8,0.8,0.,0.,270*%
%AMRect-W900000-H800000-RO0.500*
21,1,0.9,0.8,0.,0.,270*%
%AMRect-W800000-H1700000-RO0.500*
21,1,0.8,1.7,0.,0.,270*%
%AMRect-W800000-H800000-RO1.500*
21,1,0.8,0.8,0.,0.,90*%
%AMRect-W854139-H954975-RO1.500*
21,1,0.854139,0.954975,0.,0.,90*%
%AMRect-W1004294-H872132-RO1.500*
21,1,1.004294,0.872132,0.,0.,90*%
%AMRR-H872132-W1004294-R436066-RO1.500*
21,1,0.132162,0.872132,0.,0.,90*
1,1,0.872132,-0.,-0.066081*
1,1,0.872132,-0.,0.066081*
1,1,0.872132,0.,0.066081*
1,1,0.872132,0.,-0.066081*%
%AMRR-H3182132-W1004294-R436066-RO1.500*
21,1,0.132162,3.182132,0.,0.,90*
21,1,1.004294,2.31,0.,0.,90*
1,1,0.872132,-1.155,-0.066081*
1,1,0.872132,-1.155,0.066081*
1,1,0.872132,1.155,0.066081*
1,1,0.872132,1.155,-0.066081*%
%AMRect-W800000-H800000-RO1.000*
21,1,0.8,0.8,0.,0.,180*%
%AMRect-W900000-H800000-RO1.500*
21,1,0.9,0.8,0.,0.,90*%
%AMRect-W500000-H900000-RO1.000*
21,1,0.5,0.9,0.,0.,180*%
%AMRect-W2500000-H2300000-RO0.500*
21,1,2.5,2.3,0.,0.,270*%
%AMRect-W1400000-H1400000-RO1.500*
21,1,1.4,1.4,0.,0.,90*%
%AMRect-W1700000-H1700000-RO1.000*
21,1,1.7,1.7,0.,0.,180*%
%AMRect-W2500000-H2300000-RO1.500*
21,1,2.5,2.3,0.,0.,90*%
%AMRect-W900000-H800000-RO1.000*
21,1,0.9,0.8,0.,0.,180*%
%AMRect-W1500000-H900000-RO1.500*
21,1,1.5,0.9,0.,0.,90*%
%AMRect-W900000-H1700000-RO1.000*
21,1,0.9,1.7,0.,0.,180*%
%AMRect-W500000-H600000-RO1.500*
21,1,0.5,0.6,0.,0.,90*%
%AMRect-W1700000-H1700000-RO1.500*
21,1,1.7,1.7,0.,0.,90*%
%AMRect-W1400000-H2800000-RO1.000*
21,1,1.4,2.8,0.,0.,180*%
%AMRect-W1600000-H5100000-RO0.500*
21,1,1.6,5.1,0.,0.,270*%
%AMRR-H4600000-W1600000-R800000-RO0.500*
21,1,1.6,3.,0.,0.,270*
1,1,1.6,1.5,0.*
1,1,1.6,1.5,-0.*
1,1,1.6,-1.5,-0.*
1,1,1.6,-1.5,0.*%
%AMRR-H4600000-W1600000-R800000-RO0.000*
21,1,1.6,3.,0.,0.,360*
1,1,1.6,0.,1.5*
1,1,1.6,0.,1.5*
1,1,1.6,0.,-1.5*
1,1,1.6,-0.,-1.5*%
%AMRect-W854139-H954975-RO1.000*
21,1,0.854139,0.954975,0.,0.,180*%
%AMRect-W1700000-H1700000-RO0.500*
21,1,1.7,1.7,0.,0.,270*%
%AMRect-W500000-H900000-RO1.500*
21,1,0.5,0.9,0.,0.,90*%
%ADD10C,0.5*%
%ADD11C,0.2032*%
%ADD12C,0.4*%
%ADD13C,1.*%
%ADD14C,0.75*%
%ADD15R,0.9X1.7*%
%ADD16R,1.7X1.7*%
%ADD17C,1.7*%
%ADD18Rect-W800000-H1700000-RO1.500*%
%ADD19Rect-W1752833-H382672-RO1.000*%
%ADD20RR-H382672-W1752833-R191336-RO1.000*%
%ADD21Rect-W900000-H950000-RO0.500*%
%ADD22Rect-W600000-H1250000-RO0.500*%
%ADD23Rect-W400000-H700000-RO1.500*%
%ADD24Rect-W800000-H800000-RO0.500*%
%ADD25Rect-W900000-H800000-RO0.500*%
%ADD26Rect-W800000-H1700000-RO0.500*%
%ADD27Rect-W800000-H800000-RO1.500*%
%ADD28Rect-W854139-H954975-RO1.500*%
%ADD29Rect-W1004294-H872132-RO1.500*%
%ADD30RR-H872132-W1004294-R436066-RO1.500*%
%ADD31RR-H3182132-W1004294-R436066-RO1.500*%
%ADD32R,0.7X0.7*%
%ADD33Rect-W800000-H800000-RO1.000*%
%ADD34Rect-W900000-H800000-RO1.500*%
%ADD35R,0.5X0.9*%
%ADD36Rect-W500000-H900000-RO1.000*%
%ADD37Rect-W2500000-H2300000-RO0.500*%
%ADD38R,1.96X3.39*%
%ADD39C,1.4*%
%ADD40Rect-W1400000-H1400000-RO1.500*%
%ADD41C,1.7*%
%ADD42Rect-W1700000-H1700000-RO1.000*%
%ADD43Rect-W2500000-H2300000-RO1.500*%
%ADD44Rect-W900000-H800000-RO1.000*%
%ADD45R,4.099999X4.099999*%
%ADD46R,0.9X1.5*%
%ADD47R,1.5X0.9*%
%ADD48R,0.9X0.8*%
%ADD49Rect-W1500000-H900000-RO1.500*%
%ADD50Rect-W900000-H1700000-RO1.000*%
%ADD51R,3.5X1.6*%
%ADD52R,1.6X1.6*%
%ADD53C,1.6*%
%ADD54Rect-W500000-H600000-RO1.500*%
%ADD55C,1.7*%
%ADD56Rect-W1700000-H1700000-RO1.500*%
%ADD57Rect-W1400000-H2800000-RO1.000*%
%ADD58Rect-W1600000-H5100000-RO0.500*%
%ADD59RR-H4600000-W1600000-R800000-RO0.500*%
%ADD60RR-H4600000-W1600000-R800000-RO0.000*%
%ADD61R,0.4X1.35*%
%ADD62R,1.6X1.4*%
%ADD63R,1.45X1.3*%
%ADD64R,1.9X1.9*%
%ADD65Rect-W854139-H954975-RO1.000*%
%ADD66C,1.7*%
%ADD67Rect-W1700000-H1700000-RO0.500*%
%ADD68Rect-W500000-H900000-RO1.500*%
%ADD69R,0.95X1.4*%
D10*
%LNtop copper_traces*%
G01*
X-47125Y-24000D02*
X-47125Y-25875D01*
D11*
X-49025Y-17150D02*
X-49025Y-18100D01*
D12*
X-48525Y-12850D02*
X-49001Y-13500D01*
X-47475Y-12200D02*
X-48525Y-12200D01*
D10*
X-47125Y-21550D02*
X-47125Y-22500D01*
D12*
X-47475Y-10900D02*
X-48775Y-10900D01*
D10*
X-49805Y10265D02*
X-42665Y2915D01*
D12*
X-48775Y-10900D02*
X-48825Y3275D01*
X-55702Y-8300D02*
X-54225Y-8300D01*
D10*
X-57675Y-25875D02*
X-53950Y-25875D01*
D13*
X-76550Y-14895D02*
X-78600Y-14850D01*
D10*
X-51075Y7725D02*
X-49755Y7725D01*
D13*
X-67175Y-9650D02*
X-80950Y-9700D01*
D12*
X-51100Y16615D02*
X-48775Y16615D01*
D10*
X-83190Y-15900D02*
X-83215Y-23445D01*
X-49805Y8995D02*
X-51075Y8995D01*
X-64275Y-9650D02*
X-62975Y-10375D01*
D13*
X-81225Y-25925D02*
X-86125Y-26050D01*
D10*
X-73350Y20456D02*
X-51075Y20425D01*
D13*
X-75202Y-23420D02*
X-73975Y-23420D01*
X-76452Y-13475D02*
X-76500Y-23445D01*
D10*
X-47125Y-22500D02*
X-43925Y-22500D01*
D12*
X-52850Y-7000D02*
X-54225Y-7000D01*
D10*
X-31265Y-15300D02*
X-31265Y-18000D01*
D13*
X-108425Y-8600D02*
X-108425Y-12330D01*
X-82175Y26425D02*
X-74200Y19155D01*
D10*
X-60025Y15300D02*
X-60075Y11125D01*
X-65625Y-8150D02*
X-61550Y-8150D01*
X-51075Y14075D02*
X-39950Y14075D01*
X-49755Y5185D02*
X-51075Y5185D01*
X-89055Y24125D02*
X-75775Y10265D01*
X-96325Y7850D02*
X-100250Y-7475D01*
X-54575Y-17150D02*
X-69150Y-17125D01*
X-70725Y1650D02*
X-68875Y3915D01*
D12*
X-61525Y-11800D02*
X-56227Y-9600D01*
D10*
X-65685Y2525D02*
X-65625Y-8150D01*
X-53925Y-28325D02*
X-47425Y-28325D01*
D13*
X-94160Y24100D02*
X-94125Y9775D01*
X-103525Y-13775D02*
X-92350Y-13800D01*
D10*
X-49755Y7725D02*
X-33825Y-8450D01*
X-23790Y11400D02*
X-30990Y4200D01*
X-105050Y-5550D02*
X-105050Y-7475D01*
D12*
X-50825Y-18750D02*
X-50875Y-9250D01*
X-47025Y-15250D02*
X-47025Y-17150D01*
D13*
X-112625Y-14080D02*
X-108425Y-12330D01*
D10*
X-21440Y6200D02*
X-24315Y3040D01*
D13*
X-80925Y-23445D02*
X-80925Y-16900D01*
D10*
X-61550Y-8150D02*
X-61550Y-10375D01*
X-103125Y-15430D02*
X-101775Y-15430D01*
X-24730Y-8450D02*
X-24730Y-11100D01*
D12*
X-51625Y-12659D02*
X-51525Y-16200D01*
X-47929Y-23600D02*
X-47900Y-15250D01*
D13*
X-93005Y-10325D02*
X-108425Y-10450D01*
D12*
X-50175Y-7841D02*
X-50175Y-15225D01*
X-52575Y-18100D02*
X-51550Y-18100D01*
D10*
X-68875Y8995D02*
X-56475Y9025D01*
X-22430Y-2050D02*
X-15450Y-2050D01*
D12*
X-48075Y-0425D02*
X-45975Y-3050D01*
D13*
X-76500Y-21975D02*
X-80925Y-21975D01*
D10*
X-76475Y8995D02*
X-71350Y8995D01*
X-74050Y12805D02*
X-71275Y12825D01*
X-51075Y11535D02*
X-49275Y11535D01*
X-48700Y-22900D02*
X-48700Y-22075D01*
X-75775Y10265D02*
X-71400Y10265D01*
X-100625Y-8850D02*
X-99400Y-8850D01*
X-63975Y-0925D02*
X-65685Y-0925D01*
X-49550Y12900D02*
X-41230Y12900D01*
D13*
X-96675Y24125D02*
X-94575Y26375D01*
X-77975Y-31925D02*
X-73975Y-30075D01*
D12*
X-52575Y-16200D02*
X-51525Y-16200D01*
D10*
X-57675Y-22500D02*
X-54325Y-22500D01*
D12*
X-50050Y-18100D02*
X-48975Y-18100D01*
D13*
X-74048Y-10973D02*
X-73975Y-30075D01*
D10*
X-69225Y-0925D02*
X-67275Y-0925D01*
X-51075Y17885D02*
X-33700Y17925D01*
X-68875Y5185D02*
X-71350Y5235D01*
D12*
X-51175Y-19750D02*
X-50825Y-18750D01*
D13*
X-101575Y-5500D02*
X-97285Y9775D01*
D10*
X-83190Y-14895D02*
X-83190Y-15900D01*
X-70725Y-0925D02*
X-70725Y1650D01*
D12*
X-50050Y-16200D02*
X-49025Y-16200D01*
X-51138Y-24163D02*
X-51175Y-19750D01*
D10*
X-54625Y-19475D02*
X-54325Y-20450D01*
X-55525Y2450D02*
X-55525Y-0400D01*
D12*
X-50725Y-25650D02*
X-50725Y-24750D01*
D13*
X-92250Y-26050D02*
X-85975Y-31925D01*
D10*
X-49600Y6455D02*
X-32765Y-10625D01*
D13*
X-67175Y-9650D02*
X-67175Y-13950D01*
D10*
X-91595Y24125D02*
X-76475Y8995D01*
D12*
X-54225Y-6350D02*
X-52250Y-6350D01*
X-50725Y-24750D02*
X-48700Y-23600D01*
X-47929Y-23600*
X-56027Y-10250D02*
X-54225Y-10250D01*
D13*
X-112600Y-6840D02*
X-108275Y-8550D01*
D10*
X-34980Y6650D02*
X-41230Y12900D01*
D13*
X-94575Y26375D02*
X-82175Y26425D01*
D10*
X-67275Y-7925D02*
X-67275Y-5825D01*
D13*
X-112575Y-16580D02*
X-104075Y-17430D01*
D10*
X-33700Y17925D02*
X-28200Y15750D01*
D12*
X-56900Y-7841D02*
X-55702Y-8300D01*
X-45100Y-9600D02*
X-44475Y-11525D01*
X-48525Y-12200D02*
X-49425Y-12659D01*
X-51375Y-24400D02*
X-50275Y-23600D01*
D13*
X-80900Y-5950D02*
X-80925Y-14895D01*
D12*
X-49500Y-11550D02*
X-45850Y-11550D01*
D10*
X-68875Y7725D02*
X-96325Y7850D01*
X-86515Y24125D02*
X-75025Y11535D01*
X-47425Y-28325D02*
X-47425Y-25875D01*
X-32525Y6650D02*
X-39950Y14075D01*
X-64415Y0850D02*
X-64415Y2525D01*
X-24970Y-2050D02*
X-31750Y-2050D01*
D12*
X-47475Y-13500D02*
X-46000Y-13500D01*
X-61550Y-13225D02*
X-56027Y-10250D01*
D10*
X-53925Y-25875D02*
X-53925Y-28325D01*
X-33825Y-8450D02*
X-26230Y-8450D01*
X-54325Y-24000D02*
X-54325Y-25875D01*
D12*
X-54300Y-5050D02*
X-51125Y-5050D01*
X-51650Y-5700D02*
X-54225Y-5700D01*
D10*
X-100250Y-7475D02*
X-103550Y-7475D01*
X-51125Y19155D02*
X-37100Y19300D01*
D12*
X-47475Y-12850D02*
X-48525Y-12850D01*
X-52850Y-11550D02*
X-52850Y-7000D01*
D10*
X-64275Y-11800D02*
X-63050Y-11800D01*
X-47025Y-17150D02*
X-47125Y-20550D01*
X-37100Y19300D02*
X-34200Y20475D01*
D12*
X-50250Y-22900D02*
X-48750Y-22900D01*
X-50175Y-15225D02*
X-47900Y-15250D01*
D10*
X-69050Y17885D02*
X-73100Y17875D01*
D12*
X-61525Y-8950D02*
X-53050Y-8950D01*
X-43700Y-12875D02*
X-47025Y-15250D01*
D10*
X-24315Y3040D02*
X-42665Y2915D01*
X-83975Y23950D02*
X-74050Y12805D01*
D13*
X-78635Y-23445D02*
X-78635Y-25925D01*
D12*
X-56227Y-9600D02*
X-54300Y-9600D01*
D13*
X-85975Y-31925D02*
X-80975Y-31925D01*
X-94125Y9775D02*
X-97300Y9775D01*
D12*
X-54225Y-11550D02*
X-52850Y-11550D01*
D10*
X-47125Y-24000D02*
X-46025Y-24000D01*
D12*
X-48075Y-0425D02*
X-48100Y1975D01*
D10*
X-95525Y6550D02*
X-68875Y6455D01*
D13*
X-112600Y-4300D02*
X-104100Y-3500D01*
D12*
X-48075Y15345D02*
X-51075Y15325D01*
D10*
X-64275Y-13950D02*
X-63050Y-13225D01*
X-56475Y9025D02*
X-53225Y12900D01*
X-54230Y2525D02*
X-54255Y0625D01*
D12*
X-51375Y-25650D02*
X-51375Y-24400D01*
D10*
X-32765Y-10625D02*
X-32765Y-15300D01*
D12*
X-49500Y-11550D02*
X-49500Y-6541D01*
D13*
X-103150Y-5500D02*
X-101575Y-5500D01*
D10*
X-53450Y-20200D02*
X-52025Y-20200D01*
D12*
X-51650Y-5700D02*
X-50875Y-9250D01*
X-47475Y-9600D02*
X-45125Y-9600D01*
D10*
X-54575Y-17150D02*
X-54625Y-19475D01*
X-54325Y-21450D02*
X-54325Y-22500D01*
D13*
X-86195Y-10325D02*
X-86125Y-26050D01*
D12*
X-51075Y3915D02*
X-51125Y-1200D01*
X-45975Y-1250D02*
X-43700Y-3875D01*
D10*
X-43925Y-25900D02*
X-49225Y-25875D01*
D12*
X-52025Y-23400D02*
X-52025Y-25775D01*
D10*
X-100625Y-16930D02*
X-101775Y-16930D01*
D13*
X-74200Y19155D02*
X-53825Y19005D01*
D12*
X-43700Y-3875D02*
X-43700Y-12875D01*
D10*
X-30990Y4200D02*
X-41940Y4200D01*
X-51075Y6455D02*
X-49600Y6455D01*
D13*
X-105025Y-15430D02*
X-103525Y-13775D01*
X-92350Y-13800D02*
X-92250Y-26050D01*
D10*
X-75025Y11535D02*
X-71400Y11535D01*
X-99400Y-8850D02*
X-95525Y6550D01*
X-49275Y11535D02*
X-41940Y4200D01*
X-51075Y10265D02*
X-49805Y10265D01*
D12*
X-51125Y-5050D02*
X-50175Y-7841D01*
D14*
X-51125Y-1200D03*
X-69150Y-17125D03*
X-83190Y-15900D03*
X-67275Y-7925D03*
X-77575Y-22000D03*
X-100625Y-16930D03*
X-48825Y3275D03*
X-49755Y5185D03*
X-52250Y-6466D03*
X-100625Y-8850D03*
X-46000Y-13500D03*
X-71350Y5235D03*
X-80900Y-5950D03*
X-65685Y0850D03*
X-49780Y8995D03*
X-60025Y15300D03*
X-71275Y12805D03*
X-54255Y0625D03*
X-51625Y-12659D03*
X-53225Y12900D03*
X-53825Y19005D03*
X-55525Y-0400D03*
X-60000Y20425D03*
X-71400Y10265D03*
X-53450Y-20200D03*
X-48050Y15325D03*
X-71400Y11535D03*
X-49550Y12900D03*
X-45975Y-1250D03*
X-48775Y16615D03*
X-49025Y-13500D03*
X-49525Y-6541D03*
X-48075Y2300D03*
X-48700Y-22100D03*
X-71350Y8995D03*
X-64425Y0850D03*
X-56900Y-7841D03*
X-49050Y-17150D03*
X-45975Y-3050D03*
X-46025Y-24000D03*
X-45100Y-9600D03*
X-73100Y17875D03*
X-49425Y-12659D03*
%LNtop copper component 0482f48a0a855ddf*%
D15*
X-67175Y-9650D03*
X-64275Y-9650D03*
%LNtop copper component 41b9db879265162a*%
D16*
X-28340Y15800D03*
D17*
X-25800Y15800D03*
X-23260Y15800D03*
%LNtop copper component 6813cacbefd1e2b9*%
D18*
X-43925Y-25900D03*
X-43925Y-22500D03*
%LNtop copper component 3db6a5b20525de24*%
D19*
X-47475Y-13500D03*
D20*
X-47475Y-12850D03*
X-47475Y-12200D03*
X-47475Y-11550D03*
X-47475Y-10900D03*
X-47475Y-10250D03*
X-47475Y-9600D03*
X-47475Y-8950D03*
X-47475Y-8300D03*
X-47475Y-7650D03*
X-47475Y-7000D03*
X-47475Y-6350D03*
X-47475Y-5700D03*
X-47475Y-5050D03*
X-54225Y-5050D03*
X-54225Y-5700D03*
X-54225Y-6350D03*
X-54225Y-7000D03*
X-54225Y-7650D03*
X-54225Y-8300D03*
X-54225Y-8950D03*
X-54225Y-9600D03*
X-54225Y-10250D03*
X-54225Y-10900D03*
X-54225Y-11550D03*
X-54225Y-12200D03*
X-54225Y-12850D03*
X-54225Y-13500D03*
%LNtop copper component e5f8c1f535fec6ea*%
D21*
X-52025Y-20200D03*
X-52025Y-23350D03*
%LNtop copper component 252a53037974c115*%
D22*
X-71575Y20705D03*
X-71575Y18905D03*
%LNtop copper component fe80ee474570cac8*%
D23*
X-48700Y-23600D03*
X-48700Y-22900D03*
%LNtop copper component 10b1d0880790c1b8*%
D24*
X-54325Y-22500D03*
X-54325Y-24000D03*
%LNtop copper component 7dfbba8ca001c3b6*%
D25*
X-103125Y-15430D03*
X-105025Y-15430D03*
X-104075Y-17430D03*
%LNtop copper component 874acaaaf3958b77*%
D26*
X-57675Y-22500D03*
X-57675Y-25900D03*
%LNtop copper component e8ebb05cec54ac0d*%
D27*
X-47125Y-24000D03*
X-47125Y-22500D03*
%LNtop copper component c153c2d1b3039095*%
D28*
X-74048Y-10973D03*
X-74048Y-9672D03*
%LNtop copper component e17a0e78ec20d950*%
D29*
X-83190Y-14895D03*
D30*
X-80900Y-14895D03*
X-78610Y-14895D03*
D31*
X-80900Y-8305D03*
%LNtop copper component 2322a58d1cfe3815*%
D32*
X-45850Y-11550D03*
X-44450Y-11550D03*
%LNtop copper component 69f7728837d07548*%
D33*
X-61550Y-13225D03*
X-63050Y-13225D03*
%LNtop copper component ccbb334a3726f3a3*%
D34*
X-105050Y-5500D03*
X-103150Y-5500D03*
X-104100Y-3500D03*
%LNtop copper component cb29e8d30bbfcf00*%
D35*
X-51550Y-16200D03*
X-50050Y-16200D03*
%LNtop copper component aa286b59c486b578*%
D16*
X-21440Y6200D03*
D17*
X-18900Y6200D03*
X-16360Y6200D03*
%LNtop copper component cdd3a1667d55a24f*%
D36*
X-24730Y-8450D03*
X-26230Y-8450D03*
%LNtop copper component 9bccb15b690cf48e*%
X-31265Y-15300D03*
X-32765Y-15300D03*
%LNtop copper component e0f57ae9b30cb9e8*%
D37*
X-108400Y-12330D03*
X-108400Y-16630D03*
%LNtop copper component e1627baf1bdf1fe8*%
D23*
X-50250Y-23600D03*
X-50250Y-22900D03*
%LNtop copper component 56bb46b189b3895e*%
D36*
X-103550Y-7475D03*
X-105050Y-7475D03*
%LNtop copper component 9fbc797a11fedfa8*%
D28*
X-73350Y19155D03*
X-73350Y20456D03*
%LNtop copper component 1b8a31d8bfee9382*%
D38*
X-93005Y-10325D03*
X-86195Y-10325D03*
%LNtop copper component 4c982ed5264ea73b*%
D36*
X-50050Y-18100D03*
X-51550Y-18100D03*
%LNtop copper component 54130f40f4e52950*%
D16*
X-34270Y20425D03*
D17*
X-31730Y20425D03*
X-29190Y20425D03*
%LNtop copper component 1ba162ace44450bd*%
D39*
X-94135Y24125D03*
X-91595Y24125D03*
X-89055Y24125D03*
X-86515Y24125D03*
X-83975Y24125D03*
D40*
X-96675Y24125D03*
%LNtop copper component 0948399de430e016*%
D41*
X-24970Y-2050D03*
D42*
X-22430Y-2050D03*
%LNtop copper component 10c78444f405e5b2*%
D29*
X-83215Y-23445D03*
D30*
X-80925Y-23445D03*
X-78635Y-23445D03*
D31*
X-80925Y-16855D03*
%LNtop copper component 0d00b0983ae96748*%
D16*
X-25130Y-10675D03*
D17*
X-22590Y-10675D03*
X-20050Y-10675D03*
%LNtop copper component 33150007373fcac5*%
D43*
X-108400Y-8600D03*
X-108400Y-4300D03*
%LNtop copper component b82c1ab224868cec*%
D44*
X-52575Y-18100D03*
X-52575Y-16200D03*
X-54575Y-17150D03*
%LNtop copper component 90b1addd98e51485*%
D45*
X-60625Y11775D03*
D46*
X-65685Y2525D03*
X-64415Y2525D03*
X-63145Y2525D03*
X-61875Y2525D03*
X-60605Y2525D03*
X-59335Y2525D03*
X-58065Y2525D03*
X-56795Y2525D03*
X-55525Y2525D03*
X-54255Y2525D03*
D47*
X-68875Y20425D03*
X-68875Y19155D03*
X-68875Y17885D03*
X-68875Y16615D03*
X-68875Y15345D03*
X-68875Y14075D03*
X-68875Y12805D03*
X-68875Y11535D03*
X-68875Y10265D03*
X-68875Y8995D03*
X-68875Y7725D03*
X-68875Y6455D03*
X-68875Y5185D03*
X-68875Y3915D03*
X-51075Y3915D03*
X-51075Y5185D03*
X-51075Y6455D03*
X-51075Y7725D03*
X-51075Y8995D03*
X-51075Y10265D03*
X-51075Y11535D03*
X-51075Y12805D03*
X-51075Y14075D03*
X-51075Y15345D03*
X-51075Y16615D03*
X-51075Y17885D03*
X-51075Y19155D03*
X-51075Y20425D03*
%LNtop copper component cea296ead8353e7d*%
D48*
X-48975Y-16200D03*
X-48975Y-18100D03*
X-46975Y-17150D03*
%LNtop copper component 3f845e058fdd5e1f*%
D35*
X-70725Y-0925D03*
X-69225Y-0925D03*
%LNtop copper component 707d07d50a841e56*%
D49*
X-67275Y-5825D03*
X-63975Y-5825D03*
X-63975Y-0925D03*
X-67275Y-0925D03*
%LNtop copper component ff541e940e5d7fe4*%
D50*
X-64275Y-11800D03*
X-67175Y-11800D03*
%LNtop copper component d0480286b2d570aa*%
D51*
X-92325Y-17800D03*
X-86925Y-17800D03*
%LNtop copper component 47b0c5916d82fa2f*%
D52*
X-40060Y6650D03*
D53*
X-37520Y6650D03*
X-34980Y6650D03*
X-32440Y6650D03*
%LNtop copper component 572823f635f88fe9*%
D54*
X-54325Y-21450D03*
X-54325Y-20450D03*
%LNtop copper component cdbf310ff226334c*%
D33*
X-61550Y-10375D03*
X-63050Y-10375D03*
%LNtop copper component 5bd49bef55a165bf*%
D55*
X-112600Y-4300D03*
D56*
X-112600Y-6840D03*
%LNtop copper component 498e91e107611f94*%
D57*
X-73950Y-17125D03*
X-76550Y-17125D03*
%LNtop copper component b53fcbc86ee9c919*%
D51*
X-92325Y-26050D03*
X-86925Y-26050D03*
%LNtop copper component 07d7061eb338d36e*%
D58*
X-79475Y-25925D03*
D59*
X-79475Y-31925D03*
D60*
X-74775Y-28925D03*
%LNtop copper component 9535f7950e9c5dc2*%
D57*
X-73950Y-20600D03*
X-76550Y-20600D03*
%LNtop copper component 56c081ad7e014188*%
D50*
X-64275Y-13950D03*
X-67175Y-13950D03*
%LNtop copper component ca64192462e6d2e1*%
D16*
X-23790Y11400D03*
D17*
X-21250Y11400D03*
X-18710Y11400D03*
%LNtop copper component c598bdc0c98843fc*%
D61*
X-52025Y-25650D03*
X-51375Y-25650D03*
X-50725Y-25650D03*
X-50075Y-25650D03*
X-49425Y-25650D03*
D62*
X-53925Y-25875D03*
X-47525Y-25875D03*
D63*
X-54150Y-28325D03*
X-47300Y-28325D03*
D64*
X-51925Y-28325D03*
X-49525Y-28325D03*
%LNtop copper component fb931288130509ae*%
D16*
X-31665Y-17525D03*
D17*
X-29125Y-17525D03*
X-26585Y-17525D03*
%LNtop copper component 081f6af8756ef78d*%
D65*
X-75202Y-23420D03*
X-76503Y-23420D03*
%LNtop copper component 0e613b1f698022c6*%
D66*
X-112625Y-16620D03*
D67*
X-112625Y-14080D03*
%LNtop copper component 7e470e73fc1de78b*%
D54*
X-47125Y-21550D03*
X-47125Y-20550D03*
%LNtop copper component 7cb94848dd239724*%
D68*
X-101775Y-16930D03*
X-101775Y-15430D03*
%LNtop copper component d00ebfb179eb73d3*%
D69*
X-75977Y-13475D03*
X-74127Y-13475D03*
%LNtop copper component 9fb37c9d45968661*%
D33*
X-61550Y-11800D03*
X-63050Y-11800D03*
M02*