<svg id="Layer_1" data-name="Layer 1" xmlns="http://www.w3.org/2000/svg" width="100.38mm" height="69.68mm" viewBox="0 0 284.55 197.5">
  <defs>
    <style>
      .cls-1 {
        fill: none;
        stroke: #000;
        stroke-linecap: round;
        stroke-linejoin: round;
      }

      .cls-2, .cls-3 {
        isolation: isolate;
        font-family: Bauhaus93, Bauhaus 93;
      }

      .cls-2 {
        font-size: 11.23px;
      }

      .cls-3 {
        font-size: 6.74px;
      }
    </style>
  </defs>
  <title>rearSilk</title>
  <path class="cls-1" d="M93,39.7a8.7,8.7,0,0,0-1.4.8,16.88,16.88,0,0,0-3.1,2.1h-.1" transform="translate(-0.76 -0.69)"/>
  <path class="cls-1" d="M85.8,43.2c-.3-.2-.5-.3-.6-.6-.3-.6.3-2.1.3-2.8a28.05,28.05,0,0,0,0-4.1c-.1-.9-.5-1.9-1.7-1.7-.6.1-1.5,1.1-1.9,1.5a31.89,31.89,0,0,0-2.6,2.6,3.92,3.92,0,0,1-.8,1,2.4,2.4,0,0,1-2.5-.6c-.3-.5,0-2.1-.1-2.7a13.57,13.57,0,0,0-.8-4.1c-.9-2.4-2.7-.4-3.6.8a27.3,27.3,0,0,0-2.1,3c-.2.3-.3.9-.6,1.2a2.46,2.46,0,0,1-2.6-.2c-.4-.5-.4-2.1-.6-2.7a14,14,0,0,0-1.6-4c-2-2.8-4.3,3.4-4.8,5.1-.1.3-.1,1-.3,1.2a2.44,2.44,0,0,1-2.6.1c-.5-.5-.8-2-1.2-2.6A14.76,14.76,0,0,0,52.8,30c-1.9-1.5-2.5,1.3-2.9,2.7a20.54,20.54,0,0,0-.7,3.4c0,.3.1,1-.1,1.2a2.35,2.35,0,0,1-2.5.5c-.6-.4-1.1-1.8-1.6-2.4-.7-.9-1.9-2.6-3-3.1-2.8-1.2-2.4,5.2-2.3,6.9,0,.3.2,1,.1,1.2a2.4,2.4,0,0,1-2.5.8,21.32,21.32,0,0,1-2.2-2.1c-.8-.7-2.6-2.4-3.7-2.5-2.2-.2-1.5,2.8-1.4,4a13.72,13.72,0,0,0,.7,3.4c.1.3.4.8.3,1.2a2.08,2.08,0,0,1-2.2,1.1c-.8-.3-1.7-1.2-2.6-1.6s-3-1.8-4.1-1.7c-2.6.4.1,6.1.8,7.5.2.4.5.7.4,1.2a2,2,0,0,1-2,1.3c-.9-.2-1.9-.8-2.9-1.1s-3.3-1.2-4.3-.8c-1.9.8,0,3.4.6,4.5a26.75,26.75,0,0,0,1.8,2.8c.4.5.6.6.5,1.2a1.62,1.62,0,0,1-1.7,1.5c-1-.1-2-.4-3-.5s-3.5-.5-4.3.1c-1.9,1.6,2.6,5.4,3.8,6.6.6.5.6.4.5,1.2-.2,1.1-.5,1.5-1.4,1.5s-2.1,0-3.1.1c-1.2.1-3.5.1-4.1,1.2-.9,1.5,1.4,2.9,2.5,3.7.9.7,1.8,1.2,2.7,1.8s.8.5.5,1.6-.2,1.1-1.1,1.3c-1.8.4-6.7.8-6.9,2.9S6,86,7.6,86.8c.9.4.9.6.8,1.8-.1.9-.1.8-.9,1.1-1,.4-2,.8-3,1.3S.6,92.6,1.4,94.3c.5,1,2.7,1.5,3.8,1.8s2.1.3,3.1.6a1.58,1.58,0,0,1,1.1,1.9c-.1.7-.2.6-.8,1-1.4.9-6.6,3.9-4.9,5.8.7.8,3.1.8,4.2.9s2.1-.1,3.1,0a1.71,1.71,0,0,1,1.4,1.9c-.1.5-.4.6-.8,1a17.28,17.28,0,0,0-2.3,2.4c-.8,1-3,3.1-1.3,4.2.9.6,3.3.1,4.4,0a26.53,26.53,0,0,1,3-.6,1.91,1.91,0,0,1,1.7,1.7c0,.4-.4.7-.7,1.1-1,1.3-4.7,6.3-2.1,7.2,1,.3,3.3-.6,4.3-.9a16.24,16.24,0,0,1,2.8-1.1,2.13,2.13,0,0,1,2,1.5c0,.3-.4.8-.5,1.1a30.54,30.54,0,0,0-1.3,3.2c-.4,1.3-1.5,4,.8,4.1,1.1,0,3-1.2,4-1.7a13.25,13.25,0,0,1,2.5-1.6,2.31,2.31,0,0,1,2.2,1.3c.1.2-.3.9-.4,1.2-.5,1.7-2,7.9,1.1,7.1,1.2-.3,2.6-1.7,3.5-2.5.6-.5,1.4-1.7,2.1-2a2.36,2.36,0,0,1,2.4,1,4.87,4.87,0,0,1-.1,1.2,14.47,14.47,0,0,0,.1,3.6c.1,1.5.3,4.2,2.5,3a12.65,12.65,0,0,0,3-3.1c.4-.6,1-2,1.6-2.3a2.35,2.35,0,0,1,2.5.7,5.7,5.7,0,0,1,.1,1.3c.2,1.7,1.3,8.3,3.8,5.8a14.76,14.76,0,0,0,2.3-3.6c.3-.6.6-2.2,1.1-2.5a2.44,2.44,0,0,1,2.6.3,5.64,5.64,0,0,1,.4,1.2c.4,1.1.9,2.2,1.4,3.3.3.5.7,1.7,1.2,2a1.42,1.42,0,0,0,2.2-.7,18.48,18.48,0,0,0,1.5-3.9c.2-.7.2-2.3.7-2.7a2.27,2.27,0,0,1,2.5,0c.3.3.4.9.6,1.2a21.12,21.12,0,0,0,2.1,3.1c.3.4,1,1.6,1.5,1.7a1.16,1.16,0,0,0,1.3-.2" transform="translate(-0.76 -0.69)"/>
  <path class="cls-1" d="M115,75.1a7.37,7.37,0,0,1,1.4.4h0" transform="translate(-0.76 -0.69)"/>
  <path class="cls-1" d="M75.4,144v.1a1.64,1.64,0,0,1-.7,1.1" transform="translate(-0.76 -0.69)"/>
  <path class="cls-1" d="M106.7,62.1l-.6.6" transform="translate(-0.76 -0.69)"/>
  <path class="cls-1" d="M76.1,138.6a7.5,7.5,0,0,1,0,1.5,18.65,18.65,0,0,1-.7,4" transform="translate(-0.76 -0.69)"/>
  <path class="cls-1" d="M111.7,101.3h.4" transform="translate(-0.76 -0.69)"/>
  <path class="cls-1" d="M165.7,83.1c-.8,1.5-1.2,2.9.2,3.5h0" transform="translate(-0.76 -0.69)"/>
  <path class="cls-1" d="M236.3,98.7a12.75,12.75,0,0,1,.1,1.9" transform="translate(-0.76 -0.69)"/>
  <path class="cls-1" d="M231.3,100.9a11.51,11.51,0,0,0,1.7,1.4" transform="translate(-0.76 -0.69)"/>
  <path class="cls-1" d="M166,86.6c.9.3,3.1-.4,4-.6a14.26,14.26,0,0,0,2.7-.9c.8-.3.7-.4,1.4.2.9.8.9.9.5,1.8s-.9,1.6-1.3,2.4c-.4,1-1.3,2.7-1.2,3.8.1,2.2,2.3,1.4,3.6.9a17.72,17.72,0,0,0,3.1-1.5c1.1-.7,1.4-1.4,2.6-.4s.6,1.4.2,2.6a18.57,18.57,0,0,0-.6,3.4c-.2,1.5-.3,3.8,1.9,3.2a11.9,11.9,0,0,0,3.3-2.2c.7-.6,1.3-1.3,2-1.8s1.1-.5,2,.2c.6.5.5.4.4,1.2a13.13,13.13,0,0,0-.1,2.8c0,1-.1,3.3.5,4.1,1.7,2.3,5-2.4,5.9-3.7.7-1.1,1.2-2.3,2.8-1.1.6.4.4,1.6.6,2.4.3,1.7,1.5,7.8,4,5a23,23,0,0,0,2.1-3.3c.4-.7.6-1.7,1-2.4a1.81,1.81,0,0,1,2.3-.5c.3.2.3.7.5,1.1.3.9.7,1.8,1.1,2.7a12.61,12.61,0,0,0,1.6,3" transform="translate(-0.76 -0.69)"/>
  <path class="cls-1" d="M212.7,108.7a1.76,1.76,0,0,0,.5.4c1.9.8,2.5-1.7,2.9-3a15.67,15.67,0,0,0,.8-3.1c.1-.3,0-.8.1-1.1a1.85,1.85,0,0,1,2.2-.9c.5.2,1,1.7,1.3,2.2a20.11,20.11,0,0,0,2.3,2.8c.5.5.9,1.1,1.6,1.2,1.2.1,1.5-.7,1.7-1.6a23.2,23.2,0,0,0,.5-3.8,10.48,10.48,0,0,1-.1-2.5,2.06,2.06,0,0,1,2.1-1.2c.3.1.6.7.8.9a16.81,16.81,0,0,0,1.9,1.9" transform="translate(-0.76 -0.69)"/>
  <path class="cls-1" d="M236.3,98.7c-.2-1.1-.4-2.2-.6-2.9a7.6,7.6,0,0,1-.4-1.1,3.17,3.17,0,0,1,1.9-1.5c.5.1,1.6,1.2,2.1,1.5a24.94,24.94,0,0,0,3.3,1.6c1,.4,1.3.7,2.1-.1s.6-1.1.4-2.1a20.36,20.36,0,0,0-1.1-3.5c-.2-.5-1.2-1.8-1.2-2.3a2,2,0,0,1,.4-.8" transform="translate(-0.76 -0.69)"/>
  <path class="cls-1" d="M245.3,87a3.29,3.29,0,0,0-.6-.3,2.24,2.24,0,0,0-1.4.9" transform="translate(-0.76 -0.69)"/>
  <path class="cls-1" d="M251.7,84.5c.6,1,1.4,2.4,1,3.3a1.34,1.34,0,0,1-.6.7" transform="translate(-0.76 -0.69)"/>
  <path class="cls-1" d="M233,102.2a2.65,2.65,0,0,0,2.1.6c.9-.2,1.2-1.1,1.2-2.2" transform="translate(-0.76 -0.69)"/>
  <path class="cls-1" d="M245.3,87c.2.1.3.2.4.2a26.37,26.37,0,0,0,3,1c1.1.3,2.6.9,3.5.3" transform="translate(-0.76 -0.69)"/>
  <path class="cls-1" d="M164,77.1h1.1" transform="translate(-0.76 -0.69)"/>
  <path class="cls-1" d="M251.7,84.5c-.1-.1-.2-.3-.3-.4a22,22,0,0,0-1.7-2.5,6.47,6.47,0,0,1-.8-.9v-.1" transform="translate(-0.76 -0.69)"/>
  <path class="cls-1" d="M162.8,31.2h.2c1.2,0,2.4,0,3.6.1.6.1,2,.7,2.5.5a2.35,2.35,0,0,0,1.2-2.1,6.47,6.47,0,0,0-.8-.9,14.52,14.52,0,0,1-1.7-2.6c-.6-1.1-1.7-2.5-1-3.7.8-1.4,2.6-.6,4-.3a14.19,14.19,0,0,1,2.9,1c.3.1.6.4.9.4.9.2,1.3-.6,2-1.3a16.27,16.27,0,0,0-1.1-2.3,22.4,22.4,0,0,1-1.1-3.4,2.79,2.79,0,0,1-.1-2c.6-1.1,1.4-.9,2.3-.6a35.39,35.39,0,0,1,3.4,1.6c.6.4,1.4,1.3,2.1,1.5a2.37,2.37,0,0,0,2.1-1.1c.1-.3-.3-.9-.3-1.2-.5-1.7-1.5-5.8-.1-6.9,1.7-1.5,5,2.1,6.2,3.4.2.2.5.8.8.9a2.86,2.86,0,0,0,2.3-.8c.2-.5-.2-2-.1-2.6a23.25,23.25,0,0,1,.4-3.7c.2-1,.2-1.4,1.2-1.8s1.2,0,2,.8A16.83,16.83,0,0,1,199,7c.3.5.8,2,1.3,2.2a2.56,2.56,0,0,0,2.4-.6,4.48,4.48,0,0,0,.1-1.2,16.66,16.66,0,0,1,.8-3c.4-1.3.8-3.4,2.5-3.2,1.2.2,1.9,2,2.5,3.1a13.9,13.9,0,0,1,1.2,2.8,4.23,4.23,0,0,0,.4,1.2,2.11,2.11,0,0,0,2.4-.3,17,17,0,0,0,.9-2.4,29,29,0,0,1,2-3.3,1.58,1.58,0,0,1,2.3-.7c.5.3.7,1.2.9,1.7a20,20,0,0,1,.9,3.5c.1.6,0,2.1.3,2.5a1.82,1.82,0,0,0,2.4,0,8.79,8.79,0,0,0,.6-1c.9-1.4,4-6,5.9-4,.7.7.6,3,.6,4a28.1,28.1,0,0,1-.1,2.9c0,.4-.2.8,0,1.1a1.77,1.77,0,0,0,2.3.5c.7-.4,1.2-1.3,1.9-1.8a22.74,22.74,0,0,1,3.2-2.2,1.63,1.63,0,0,1,2.2.6c.3.5,0,1.6-.1,2.2a21.36,21.36,0,0,1-.6,3.5c-.2.9-.8,1.7-.3,2.4,1.1,1.6,1.8.7,2.9,0a14,14,0,0,1,3-1.5c1.2-.5,3.5-1.6,4,.5.2,1-.9,3-1.2,3.9a19.65,19.65,0,0,1-1.3,2.5c-.4.7-.5.6,0,1.4.7,1,.7,1.1,1.7.8,1.9-.5,4.5-1.9,6.5-1.5,3.1.6-.5,5.2-1.6,6.5-.8,1-1.6,1.2-.9,2.5s1.3.8,2.6.6c1.7-.2,7.6-.8,6.3,2.3-.9,2-3.3,3.2-4.8,4.6-.7.6-.7.8-.2,1.8.4.8.3.7,1.1.8a26.6,26.6,0,0,1,2.8.3c1,.2,3.3.4,4,1.1,1.5,1.5-.7,2.8-1.8,3.6a26.06,26.06,0,0,1-2.8,1.7c-1.2.6-2.3.7-1.6,2.5.3.8,1.3.8,2.2,1a18.25,18.25,0,0,1,3.2,1.4c.5.3,1.6.6,1.8,1.1a1.61,1.61,0,0,1-.7,2.2,16.13,16.13,0,0,1-3.6,1.5c-.8.3-1.8.3-2.5.6a2,2,0,0,0-.9,2.2c.1.3.6.4,1,.6a12.75,12.75,0,0,1,2.5,1.5c.8.5,2.8,1.7,3,2.7.6,2.6-4.9,2.7-6.6,2.7a4.05,4.05,0,0,0-1.1,0,2,2,0,0,0-1.3,2c.2.5,1.5,1.2,1.9,1.6a15.46,15.46,0,0,1,2.4,2.7c.4.5,1,1.1,1,1.7,0,1.2-.9,1.5-1.8,1.6a23.81,23.81,0,0,1-3.8-.1,11.08,11.08,0,0,0-2.5-.5c-.6,0-1.5,1-1.6,1.7" transform="translate(-0.76 -0.69)"/>
  <path class="cls-1" d="M165.7,83.1A15.43,15.43,0,0,1,168,80c.7-.8,1.5-1.3,1-2.2" transform="translate(-0.76 -0.69)"/>
  <path class="cls-1" d="M169,77.7a3.19,3.19,0,0,0-.6-.7c-.6-.6-1.5-.1-2.5,0a2.49,2.49,0,0,0-.8.1" transform="translate(-0.76 -0.69)"/>
  <path class="cls-1" d="M164,77.1c-2.4,0-5.5-.3-4-2.6,1.3-1.9,3.2-2.9,4.7-4.4a1.69,1.69,0,0,0,0-2.3c-.3-.3-.7-.2-1.1-.2a14.28,14.28,0,0,1-2.9-.3c-.9-.2-3.3-.4-3.8-1.2-1.2-1.6,1-2.8,2.1-3.6a15.57,15.57,0,0,1,2.8-1.6,4.18,4.18,0,0,0,1-.4,2.1,2.1,0,0,0,.4-2.4c-.3-.4-1.9-.5-2.4-.7-1.1-.4-2.2-.9-3.3-1.4-.5-.3-1.4-.6-1.6-1.2-.5-1.1.2-1.7,1.1-2.2a21.69,21.69,0,0,1,3.5-1.5,10.15,10.15,0,0,0,2.5-.6,2.42,2.42,0,0,0,.7-2.3c-.1-.2-.8-.4-1.1-.5-1.5-.7-5.2-2.7-5.3-4.4-.1-2.4,4.9-2.4,6.7-2.4a4.82,4.82,0,0,0,1.2,0,2.57,2.57,0,0,0,1-2.2c-.2-.5-1.6-1.2-2-1.6a22.64,22.64,0,0,1-2.5-2.8c-.6-.8-.9-1-.6-1.9.3-1.1.8-1,1.8-1.1" transform="translate(-0.76 -0.69)"/>
  <path class="cls-1" d="M115,75.1a7.37,7.37,0,0,1-.5.6l-.3.3a4.44,4.44,0,0,1-1.1.8,12.57,12.57,0,0,1-3.8,1.5c-3.5.7-.8-5.1.3-6.4.3-.3,1.3-1,1.4-1.2a5.72,5.72,0,0,0-1.1-1.6c-.6-.9-.4-.9-1.2-.7a21.36,21.36,0,0,1-2.7.9c-1.1.1-3.6.4-4.4-.3-1.5-1.2.8-3.3,1.7-4.2a7.64,7.64,0,0,1,2.3-1.7,1.42,1.42,0,0,1,.6-.2" transform="translate(-0.76 -0.69)"/>
  <path class="cls-1" d="M106.7,62.1a5.07,5.07,0,0,0-.2-.9,9.51,9.51,0,0,0-.4-1.8c-.2-.1-1,.2-1.3.2-1.6.1-7.1-1.1-6.3-3.3a3.18,3.18,0,0,1,2-1.7" transform="translate(-0.76 -0.69)"/>
  <path class="cls-1" d="M115,75.1c.1-.1.2-.2.6-.1a2.85,2.85,0,0,1,.8.4" transform="translate(-0.76 -0.69)"/>
  <path class="cls-1" d="M100.9,47c-.8-1-1.4-2.1.2-2.7a10.36,10.36,0,0,1,4.3-.4c.6,0,2.6.9,2.9.7s1-1.7,1.2-2.1c.3-.9.3-.6-.5-1.2a5.72,5.72,0,0,1-.8-.7,10.84,10.84,0,0,1-1.8-2.9c-.3-.7-.9-1.7-.7-2.4.4-1.2,1.5-.9,2.4-.7a11.75,11.75,0,0,1,3.6,1.2,3.59,3.59,0,0,1,1,.7c.2.2.5.8.8.8s1.1-.8,1.5-1.1c1.2-1,1-.7.3-2a6.12,6.12,0,0,1-.5-1.2,12,12,0,0,1-.5-3.8c0-.9.1-2.1,1.3-2.1a5.32,5.32,0,0,1,2.2,1.2,8.76,8.76,0,0,1,2.4,2.3c.3.4.4,1,.7,1.3.5.6.2.5,1.1.3.4-.1,2-.4,2.2-.7s-.3-2.6-.3-3.1a9.87,9.87,0,0,1,1.3-4.1c1.4-1.8,2.9.8,3.6,2a9.87,9.87,0,0,1,1.2,2.8.76.76,0,0,0,.1.4c.1.9-.2.9.5,1.2a6.47,6.47,0,0,0,2.4.1c.7-.2.4-.3.6-1.2.4-1.7,2.4-5.4,4.1-5.4,2.1-.1,2.3,5.2,1.9,6.8-.1.2-.5,1-.4,1.2s1.6.7,2,.9c1.3.6,1,.2,1.6-.8a10.48,10.48,0,0,1,2.2-2c1-.7,3.6-2.5,4.4-.7.5,1-.3,3.4-.6,4.4a6.94,6.94,0,0,1-.5,1.3c-.2.4-1,1.1-1,1.4s1.7,2.5,2.2,2.4c.3,0,1.1-.9,1.5-1.1,1.6-.9,7.8-2.4,6.2,1.1a15.23,15.23,0,0,1-2.2,3.4,9,9,0,0,1-1,.9c-.9.6-1.2.3-1,1.4a6.67,6.67,0,0,0,.9,2.1c.4.2.7-.1,1.2-.2s.7-.1,1.1-.2a11.07,11.07,0,0,1,3.6.4c.9.2,2,.3,2.1,1.5.1.9-.6,1.4-1.3,2a12.09,12.09,0,0,1-3,2,3.54,3.54,0,0,1-1.1.3c-.4.1-1,0-1.2.3a7,7,0,0,0,.1,2.5c.3.8.1.5,1.1.6h.4a6.47,6.47,0,0,1,1.3.4,12.54,12.54,0,0,1,3.5,2.1c2,1.7-.5,2.7-2.1,3.2a10.47,10.47,0,0,1-3,.5c-.4,0-1.2-.3-1.5-.3-.6.1-.5.1-.7.9s-.5,1.4-.7,2.1c2,.8,4.7,2.9,5.2,5.2.6,2.8-5.3,1.6-6.8.8-.1-.1-.2-.1-.3-.2-.9-.5-.6-.7-1.3-.2a6.55,6.55,0,0,0-1.5,1.8c-.1.6.2.5.7,1.1a6.54,6.54,0,0,1,1.3,2.3c.5,1.2,1.3,3.4.5,4.4-1,1.2-3.4-.4-4.4-1a6.68,6.68,0,0,1-2-1.7c-.2-.2-.5-.9-.7-1-.4-.1-1.8,1-2.1,1.2-.8.7-.4.7,0,1.7.5,1.6.7,7.5-1.9,6.8-1.1-.3-2.5-2.3-3.1-3.2a6,6,0,0,1-.6-1.1c-.2-.4-.3-1.6-.5-1.8-.4-.4-3,.2-3.2.6s.1,1.3,0,1.7a11.47,11.47,0,0,1-1.1,3.1c-.8,1.6-2.3,3.5-3.5,1.1a17.35,17.35,0,0,1-1.4-3.8,5.7,5.7,0,0,1-.1-1.3c0-1.2.5-1.2-.7-1.6-.4-.1-1.9-.7-2.2-.5s-.3.9-.4,1.2a2.07,2.07,0,0,1-.6,1,10.7,10.7,0,0,1-2.6,2.6c-.8.6-1.6,1.4-2.5.7-.6-.5-.6-1.4-.7-2.3a13,13,0,0,1,.2-3.4" transform="translate(-0.76 -0.69)"/>
  <path class="cls-1" d="M103.1,49c-.4-.3-.7-.6-1.1-.9a11.41,11.41,0,0,1-1.1-1.1" transform="translate(-0.76 -0.69)"/>
  <path class="cls-1" d="M103.1,49a6,6,0,0,0,1.5.9c.6.2,1.4.2,1.6.6a6.61,6.61,0,0,1-.3,2.4c-.3.8-.1.5-1.1.5a11.81,11.81,0,0,0-4.3,1.1" transform="translate(-0.76 -0.69)"/>
  <path class="cls-1" d="M116.4,75.4c.6.4,1.3.8,1.3,1,.1.4-.2.6-.4,1.1a10.37,10.37,0,0,0-.4,1v.2" transform="translate(-0.76 -0.69)"/>
  <path class="cls-1" d="M106.7,62.1c0,.4-.1.4-.6.6" transform="translate(-0.76 -0.69)"/>
  <path class="cls-1" d="M166,86.6a4,4,0,0,1-2.8-.2,23.07,23.07,0,0,1-2.8-1,17.39,17.39,0,0,0-1.8-1.1,2,2,0,0,0-1.8,1.1c-.4.7-.3.4,0,1.2a16.67,16.67,0,0,1,.8,2c.3,1.1.5,2.1.7,3.2.1.8.2,1.2-.2,1.8-.7.9-1.3.6-2.1.2a14.65,14.65,0,0,1-4.6-3.2c-.2-.2-.5-.7-.7-.8a4.64,4.64,0,0,0-2.2,1.4,8.58,8.58,0,0,0,.4,2.1c.2,1.5.6,6.8-1.9,6.1-1.5-.4-3.4-3.1-4.3-4.4s-.5-1.5-2.1-1.1-1.1.6-1.3,2-.5,4.8-1.7,5.9c-1.9,1.8-4.1-3.1-4.6-4.5-.2-.4-.4-1.8-.6-2.1a4.57,4.57,0,0,0-2.6-.1c-.2.2-.2.8-.2,1a15.91,15.91,0,0,1-2.6,5c-.5.7-.9,1.3-1.9.8-.7-.3-.8-.8-1.1-1.6a17.1,17.1,0,0,1-.9-3,14.6,14.6,0,0,1-.3-2.2c0-.6.1-.7-.3-1a2.35,2.35,0,0,0-2.4-.2c-.4.4-.8,1.4-1.2,1.9l-1.2,1.5" transform="translate(-0.76 -0.69)"/>
  <path class="cls-1" d="M117.4,97.5l-.7.7c-1,.9-2.5,2.5-3.5.6-.5-.9-.4-2.6-.4-3.6v-.6" transform="translate(-0.76 -0.69)"/>
  <path class="cls-1" d="M112.9,94.6a12.25,12.25,0,0,1,.2-1.9c0-.3.3-.8.2-1s-.1-.2-.1-.3" transform="translate(-0.76 -0.69)"/>
  <path class="cls-1" d="M169,77.7h-.3a25.12,25.12,0,0,1-2.7-.4l-.9-.3h0" transform="translate(-0.76 -0.69)"/>
  <path class="cls-1" d="M93,39.7c.2.2.4.3.4.4a5.66,5.66,0,0,1-.8,2.5c-.2.1-.9-.1-1.1-.1a8.88,8.88,0,0,0-2.3.1c-.3,0-.5.1-.8.1" transform="translate(-0.76 -0.69)"/>
  <path class="cls-1" d="M88.4,42.6a20.48,20.48,0,0,0-2.4.5.37.37,0,0,0-.3.1" transform="translate(-0.76 -0.69)"/>
  <path class="cls-1" d="M113.2,91.4a2.16,2.16,0,0,0-1.6-.9c-.8-.2-.4-.2-1,.4a4.62,4.62,0,0,0-.7.7,11.22,11.22,0,0,1-2.2,1.6c-.9.6-2.3,1.7-3.4,1.3-1.5-.5-.9-2.4-.7-3.6a28.64,28.64,0,0,1,.7-2.8,8.18,8.18,0,0,0,.9-1.9c0-.4-1.8-1.6-2-1.6s-.7.5-.9.7a12.44,12.44,0,0,1-2,1,18,18,0,0,1-3.3,1c-.8.1-1.7,0-2-1a4.24,4.24,0,0,1,.6-1.9,41.72,41.72,0,0,1,2.6-4.6c.4-.7.5-.4,0-1.3s-.6-1.2-1.5-1.1c-.7.1-1.4.5-2.1.6-1.7.3-6.9,1.2-5.5-1.8a12.72,12.72,0,0,1,3.8-4.5c.2-.2.8-.4.9-.6s-.3-2.3-.7-2.5-1.6.2-2,.2c-1.6,0-6.2-.1-6.1-2.2,0-1.6,3.2-3.4,4.6-4.1.6-.3,1.6-.5,1.7-1a2.88,2.88,0,0,0-.6-2.3c-.2-.1-.8-.1-1.1-.2-1.7-.3-4.2-1-5.5-2.2-2.3-2.1,2.7-3.8,4.3-4.2a17.42,17.42,0,0,0,2.2-.5,1.92,1.92,0,0,0,.6-2c-.1-.8,0-.4-.7-.8a32.15,32.15,0,0,1-4.6-2.9c-.4-.4-1.1-.8-1.2-1.3-.2-1.1.5-1.5,1.3-1.7" transform="translate(-0.76 -0.69)"/>
  <path class="cls-1" d="M93,39.7c-.4-.3-1.1-.7-1.3-.9a12.86,12.86,0,0,1-1.9-2.1c-.7-.9-2.4-2.7-.8-3.7.7-.5,2.8-.1,3.7,0a23.36,23.36,0,0,1,2.6.4c1.1.3,1.4.8,2.1-.2,1.1-1.5.8-1.3-.1-2.6A9.8,9.8,0,0,1,96,28.4c-.4-.8-1.4-2.5-1.3-3.4.2-1.9,2.4-1.1,3.5-.8a23.07,23.07,0,0,1,2.8,1c.5.2,1.4,1.1,1.9,1.1a4.81,4.81,0,0,0,2-1.5,2.35,2.35,0,0,0-.5-1,11.92,11.92,0,0,1-.8-2,19.09,19.09,0,0,1-.6-3.3c-.1-.9-.2-1.3.6-1.8s1.2-.3,2.1.2a15.23,15.23,0,0,1,4.4,3.1c.2.2.5.7.7.7a3,3,0,0,0,2.1-1.5,9.33,9.33,0,0,0-.4-2.2c-.1-1.6-.5-6.7,2.1-5.9,1.5.5,3.4,3.1,4.3,4.4.7,1.2,1,1.8,2.7.8.7-.4.4-.1.5-1a2.77,2.77,0,0,1,.1-.9c.1-1.5.6-5.2,1.9-5.9,2-1.2,3.9,3.3,4.5,4.7.2.4.4,1.8.6,2a5.7,5.7,0,0,0,2.6,0c.2-.1.2-.9.3-1.1a15.91,15.91,0,0,1,2.6-5c.5-.7,1.2-1.3,2.1-.7.5.3.7,1.2.9,1.7a15.83,15.83,0,0,1,.9,3.1c.1.7.1,1.5.2,2.2s-.1.6.9.9,1.3.5,1.8-.1a12.23,12.23,0,0,0,1.2-1.9,15.07,15.07,0,0,1,2.1-2.3c1.1-1,2.7-2.1,3.3-.1a12.68,12.68,0,0,1,.3,3.4,9.74,9.74,0,0,1-.2,2.4c0,.3-.3.8-.2,1,.1.4,1.5,1.5,2.1,1.4.4-.1,1.1-1.1,1.5-1.4.7-.6,1.4-1.1,2.1-1.6,1.1-.7,2.4-1.8,3.6-1.1s.6,2.5.3,3.7a26.81,26.81,0,0,1-.7,2.7,9.09,9.09,0,0,0-.8,1.8c.1.5,1.7,1.5,2,1.5s.7-.5,1-.6a15.05,15.05,0,0,1,2.2-1.1,10.24,10.24,0,0,1,3.4-1c2.1,0,1.5,1.8,1,3.1a14.65,14.65,0,0,1-1.4,2.8,20.28,20.28,0,0,0-1.3,1.8c0,.1,0,.1-.1.2" transform="translate(-0.76 -0.69)"/>
  <path class="cls-1" d="M165.7,83.1a10.91,10.91,0,0,0-.6-1.1,13.73,13.73,0,0,0-1.3-2c-.8-1.1-1.4-1.6.1-2.8l.1-.1" transform="translate(-0.76 -0.69)"/>
  <path class="cls-1" d="M89.2,104c.1.1.3.1.4.2a12.29,12.29,0,0,1,3.6,2.3,17.1,17.1,0,0,0,1.1,1.4,5.69,5.69,0,0,0,2.2-1.1l.2-.2" transform="translate(-0.76 -0.69)"/>
  <path class="cls-1" d="M80.3,129.9A3.87,3.87,0,0,1,80,131c-.2.1-.6,0-.9,0a11.37,11.37,0,0,0-3.6,1,7.68,7.68,0,0,0-2.5,1.4c-1,1.2-.1,2,1,2.5l.6.3" transform="translate(-0.76 -0.69)"/>
  <path class="cls-1" d="M96.4,104c-.2-2.9.1-7.3,2.8-5a16.26,16.26,0,0,1,3,3.4c.2.4.4.8.6,1.3s0,.6.5.7c.7.2,1.9-.4,2.6-.5-.3-1.9,1.3-9,3.9-7.4,1.1.7,1.9,3.4,2.2,4.6v.2" transform="translate(-0.76 -0.69)"/>
  <path class="cls-1" d="M118.4,98.8a9.34,9.34,0,0,0-1.3,1.5" transform="translate(-0.76 -0.69)"/>
  <path class="cls-1" d="M112.1,101.3l.3,1.5c0,.2-.1.7,0,.8a4.29,4.29,0,0,0,2.4.5c.9-.2.4.2.8-.7a1.85,1.85,0,0,0,.2-.7,10.93,10.93,0,0,1,.8-1.5c.2-.3.4-.6.7-1" transform="translate(-0.76 -0.69)"/>
  <path class="cls-1" d="M118.4,98.8c.7-.7,1.5-1.1,2.2-.8,1.1.5,1.3,2.8,1.3,4.3" transform="translate(-0.76 -0.69)"/>
  <path class="cls-1" d="M142.2,145.5h.2a1.09,1.09,0,0,0,.5-.1" transform="translate(-0.76 -0.69)"/>
  <path class="cls-1" d="M121.9,106.3c.1.1.3.1.4.2a3.69,3.69,0,0,0,1.4.7c.7,0,0,.2.6-.3.1-.1.3-.4.4-.5a5.73,5.73,0,0,1,1.1-1.1c.9-.8,3.3-2.7,4.6-2.5s1.3,1.5,1.1,2.9" transform="translate(-0.76 -0.69)"/>
  <path class="cls-1" d="M145.4,134.4l-.6.3" transform="translate(-0.76 -0.69)"/>
  <path class="cls-1" d="M139.2,138.5l.1.4" transform="translate(-0.76 -0.69)"/>
  <path class="cls-1" d="M130,111.8a8.29,8.29,0,0,0,1.3,1.1c.4.1.4-.2.8-.4a6.38,6.38,0,0,1,1.4-.8c1.3-.6,3.4-1.4,4.8-1.2,1.7.2,1.4,1.6.8,3" transform="translate(-0.76 -0.69)"/>
  <path class="cls-1" d="M87,107a5.28,5.28,0,0,1-.3-2.4q.3-.9.9-.9" transform="translate(-0.76 -0.69)"/>
  <path class="cls-1" d="M75.4,125.1c-.8-.7-2-1.8-.9-2.8.6-.6,2.1-.6,2.9-.7a8.14,8.14,0,0,1,3.8.1c.1,0,.3.1.4.1.3.1.5.3.7.2a4.47,4.47,0,0,0,.7-1.4" transform="translate(-0.76 -0.69)"/>
  <path class="cls-1" d="M86.1,113.2c.1.1.3.2.4.3.7.4.4.5,1,.2a5.36,5.36,0,0,0,1.2-1.1" transform="translate(-0.76 -0.69)"/>
  <path class="cls-1" d="M136.1,119.5a.31.31,0,0,1,.1.2c.5,1,.3.9,1.2.7a7,7,0,0,1,1.4-.3,15,15,0,0,1,4.7.2c2.2.4,1.6,1.9.2,3.3" transform="translate(-0.76 -0.69)"/>
  <path class="cls-1" d="M89.2,104a2.7,2.7,0,0,0-1.5-.3" transform="translate(-0.76 -0.69)"/>
  <path class="cls-1" d="M79.7,114.9a3.46,3.46,0,0,1-.7-2c.3-1.5,2-1,3-.9.2,0,.3.1.5.1" transform="translate(-0.76 -0.69)"/>
  <path class="cls-1" d="M97.7,162.8c0,.3-.1.7-.1,1,0,1.3,0,4.2.9,5.1,1.4,1.3,3.4-1.5,4.3-2.8" transform="translate(-0.76 -0.69)"/>
  <path class="cls-1" d="M92.7,162.7c-1.1.8-2.6,1.8-3.6,1.6-1.9-.5-.8-4-.4-5.3.2-.5.4-1.1.6-1.5a2.09,2.09,0,0,1,.4-.6" transform="translate(-0.76 -0.69)"/>
  <path class="cls-1" d="M131.2,156.2a11.08,11.08,0,0,1,1.2,3,7.39,7.39,0,0,1,.5,2.9c-.3,1.5-1.6,1.2-2.6.7a10.08,10.08,0,0,1-2.3-1.2" transform="translate(-0.76 -0.69)"/>
  <path class="cls-1" d="M107.6,165.8c.4,1.3,1.1,3.6,2.1,4.5,1.9,1.5,3.1-2.2,3.5-3.5.1-.2.1-.5.2-.7" transform="translate(-0.76 -0.69)"/>
  <path class="cls-1" d="M84,156.2a7.54,7.54,0,0,1-2.8.4c-2.4-.6-.2-3.8.6-5a7.55,7.55,0,0,1,1.1-1.4c.2-.2,1.2-.8,1.3-1.1v-.4" transform="translate(-0.76 -0.69)"/>
  <path class="cls-1" d="M123.2,162.5a5.92,5.92,0,0,1,.1,1.9c0,1.7-.3,5.6-2.8,3.7a20.35,20.35,0,0,1-2.5-2.6" transform="translate(-0.76 -0.69)"/>
  <path class="cls-1" d="M80.6,139.7c.1.8.2.4-.6.8a16.09,16.09,0,0,0-2.8,1.7c-.5.4-1.2,1.1-1.8,1.7" transform="translate(-0.76 -0.69)"/>
  <path class="cls-1" d="M74.7,145.3c-.1.6.1,1.2,1.3,1.4.5.1,1.1.2,1.7.3" transform="translate(-0.76 -0.69)"/>
  <path class="cls-1" d="M88.3,111.8v.4c-.2,1.3-1.2,1.3-2.2,1.1" transform="translate(-0.76 -0.69)"/>
  <path class="cls-1" d="M89.2,104a19.27,19.27,0,0,0,2.4.1c1.1,0,2.8.1,2.8-1.4,0-.8-.9-1.7-1.4-2.3a11,11,0,0,0-3.1-2.6c-1-.5-1.2-.3-.9-1.6.1-.3.2-1.5.5-1.7s.4,0,.7,0h.5a9.86,9.86,0,0,0,3.8-.7c.7-.2,2.2-.6,2.7-1.3.9-1.3-.7-2.2-1.6-2.7a12.45,12.45,0,0,0-3.7-1.7c-.5-.1-1.5-.1-1.7-.4A6.09,6.09,0,0,1,90,85c.1-.2.6-.1.9-.1a10.11,10.11,0,0,0,3.3-1.6,7.87,7.87,0,0,0,2.2-1.8c.8-1.3-.3-2-1.5-2.3a16.19,16.19,0,0,0-4.4-.7c-.4,0-1,.2-1.4.2-.8,0-.2.3-.7-.3a4.92,4.92,0,0,1-.6-1.7c-.2-1-.3-.5.4-1a17.14,17.14,0,0,0,2.5-2.2c1-1.3,3.4-4.5.3-4.6a12.43,12.43,0,0,0-4.7.6c-.5.2-.9.4-1.3.6-.9.4-.4.5-1.1-.2-.4-.4-1.4-1.4-1.3-1.9.1-.3.9-1,1.1-1.3a8,8,0,0,0,.8-1.6c.6-1.4,2.1-4.9-.4-5.1-1.4-.1-3.5,1.3-4.6,2a11.32,11.32,0,0,0-1.3,1c-.2.2-.4.7-.6.7a8.26,8.26,0,0,1-2.2-1.4c-.3-.4.2-1,.4-1.7a4.53,4.53,0,0,0,.3-1.6c.2-1.4.6-5.1-1.3-5.2-1.3-.1-3.2,2.2-4,3.2a10.14,10.14,0,0,0-.9,1.3c-.1.2-.1.3-.2.5-.5.9-.5.6-1.7.3S66.7,59,66.7,58v-.5a8.6,8.6,0,0,0-.1-1.6c-.2-1.3-.7-4.1-1.9-4.8-1.8-1-3.3,2.6-3.8,3.8-.3.7-.5,2.9-.9,3.2a8.78,8.78,0,0,1-2.8.1,2.48,2.48,0,0,1-.1-.9,8.8,8.8,0,0,0-.5-1.5c-.6-1.2-1.8-3.5-3-4.1-2.2-1.1-2.6,2.7-2.8,4.1a10.87,10.87,0,0,0-.1,1.8,10.1,10.1,0,0,1,.3,1.7c-.1.4-1.5.8-2,1-1,.2-.5.3-1-.4a9.38,9.38,0,0,0-.9-1.2,13.22,13.22,0,0,0-3.7-2.9c-2.8-1.5-2.4,2.5-2.1,4.1a17,17,0,0,0,1,3.2c.4.9.5.6-.4,1.3-.3.3-.7.8-1.1.9s-.3.1-.3.2" transform="translate(-0.76 -0.69)"/>
  <path class="cls-1" d="M86.1,113.2c-.2,0-.4-.1-.6-.1a18.15,18.15,0,0,1-3-1.1" transform="translate(-0.76 -0.69)"/>
  <path class="cls-1" d="M89.2,104l-1.5-.3" transform="translate(-0.76 -0.69)"/>
  <path class="cls-1" d="M87.5,109.7a8.36,8.36,0,0,1,.8,2" transform="translate(-0.76 -0.69)"/>
  <path class="cls-1" d="M82.6,112c-.3-.2-.7-.4-1-.6s-1.1-1.1-1.3-1.1-1.7,1.1-1.9,1.4c-.5.7-.4.2,0,1,.8,1.8,2.7,9.4-1.2,7.2a16,16,0,0,1-3.5-2.8c-.3-.4-.6-.8-.8-1.1-.4-.6-.1-.6-.7-.6a8.72,8.72,0,0,0-2.5,1c.7,1.8.4,9.1-2.4,8-1.2-.5-2.5-3-3-4.1a9.38,9.38,0,0,1-.6-1.5,2,2,0,0,0-.1-.8,3.87,3.87,0,0,0-2.4-.1c-.8.3-.4-.2-.6.8a1.7,1.7,0,0,0-.1.7A9.83,9.83,0,0,1,60,121c-.5,1.3-1.8,4.4-3.5,3.9-1.4-.4-2-3.3-2.2-4.7a4.19,4.19,0,0,1-.1-1.6V118c0-1,.1-.7-.9-1-.4-.1-1.1-.5-1.5-.4-.6.1,0-.2-.5.4a1.07,1.07,0,0,0-.2.6,6,6,0,0,1-.9,1.3c-.8,1-2.7,3.3-4,3.3-2.1.1-1.6-3.8-1.5-5.1.1-.7,1-2.9.9-3.3a7.44,7.44,0,0,0-2.2-1.4c-.4,0-.4.3-.7.6a10.59,10.59,0,0,1-1.2,1c-1.1.8-3.1,2-4.5,2-2.6.1-1.2-3.5-.6-4.9.4-1,1.2-1.8,1.7-2.8.2-.4.3-.2.3-.5s-.9-1.1-1-1.3c-.7-.9-.4-.8-1.3-.4-.4.2-.8.4-1.3.6a14.69,14.69,0,0,1-4.6.7c-4.4,0,1.1-5.7,2.6-6.8.6-.5.6-.1.6-.8s-.7-2.2-1.1-2.3c-.2-.1-1.3.3-1.6.3a12.44,12.44,0,0,1-4.3-.6c-1-.3-2.4-.8-1.7-2.2.3-.7,1.6-1.4,2.2-1.9a10.85,10.85,0,0,1,3.4-1.7c.2-.1.8,0,.9-.1a7.54,7.54,0,0,0,0-2.6c-.3-.7,0-.3-.8-.5a2.49,2.49,0,0,0-.8-.1A11.66,11.66,0,0,1,26,86.5c-.9-.6-2.4-1.3-1.7-2.6.4-.7,1.7-1.1,2.5-1.3a10.36,10.36,0,0,1,3.9-.7h.5c1,0,.7.1,1.1-1.1.1-.2.5-1.2.4-1.4-.1-.4-.1,0-.5-.4a1.06,1.06,0,0,0-.5-.2,10.53,10.53,0,0,1-3-2.5c-.5-.6-1.6-1.6-1.6-2.4-.1-1.5,1.7-1.5,2.7-1.5a11.46,11.46,0,0,1,4.1.4,4.06,4.06,0,0,0,1.7.5A11.35,11.35,0,0,0,37.1,71c0-.2-.5-.4-.7-.6a11.29,11.29,0,0,1-2.1-3.1c-.3-.7-1.1-2-1-2.8.1-1.5,1.4-1.4,2.5-1.2A13.48,13.48,0,0,1,40,64.9c.4.2.7.7,1.1.9s.4.2.4.3" transform="translate(-0.76 -0.69)"/>
  <path class="cls-1" d="M87.5,109.7c-.1-.2-.2-.3-.2-.5a9.19,9.19,0,0,0-2-3.1c-.2-.2-.8-.5-.8-.6-.1-.3,1.2-2,1.4-2.1.5-.4.3-.2,1,0,.2.1.5.2.7.3h.2" transform="translate(-0.76 -0.69)"/>
  <path class="cls-1" d="M40.4,65.7h0" transform="translate(-0.76 -0.69)"/>
  <path class="cls-1" d="M80.3,129.9c.1,0,.2.1.3.1s.6,0,.7.1c.3.2.3.1.3.1" transform="translate(-0.76 -0.69)"/>
  <path class="cls-1" d="M81.7,130.3c0-.1.1-.1,0,0" transform="translate(-0.76 -0.69)"/>
  <path class="cls-1" d="M113.5,166a6.68,6.68,0,0,0,1.7,2c1.8,1.3,2.5-.9,2.9-2.6" transform="translate(-0.76 -0.69)"/>
  <path class="cls-1" d="M79.7,114.9c-.6,1.3,1.2,3.4,2.1,4.4a5.73,5.73,0,0,0,1.1,1.1.35.35,0,0,0,.2.1" transform="translate(-0.76 -0.69)"/>
  <path class="cls-1" d="M84,156.2c0,.1-.1.2-.1.3-.7,2.8,2.7,1.7,4.2,1.1a8,8,0,0,0,1.6-.8" transform="translate(-0.76 -0.69)"/>
  <path class="cls-1" d="M80.3,129.9a11.81,11.81,0,0,1-2.9-1.6c-.6-.5-1.8-1.2-2.1-1.9a1.18,1.18,0,0,1,.1-1.4" transform="translate(-0.76 -0.69)"/>
  <path class="cls-1" d="M89.8,156.8a6.42,6.42,0,0,0,1.3-1c.2-.2.5-.8.7-.8a10.09,10.09,0,0,1,2.1,1.5c.4.6.3.3-.1,1a2.19,2.19,0,0,1-.3.5,11.56,11.56,0,0,0-.7,3.7v.8" transform="translate(-0.76 -0.69)"/>
  <path class="cls-1" d="M121.9,102.3a8.47,8.47,0,0,0-.4-1.7c-.5-1.2-1.6-1.1-2.5-.3a12.33,12.33,0,0,0-2.9,3.5c-.2.4-.4.8-.6,1.3-.2.7,0,.7-.5.9a7.1,7.1,0,0,1-2.6-.4c-.2-.3-.2-2.6-.4-3.2a3.55,3.55,0,0,0-.4-.9" transform="translate(-0.76 -0.69)"/>
  <path class="cls-1" d="M88.3,111.8a11.92,11.92,0,0,1-.8-2" transform="translate(-0.76 -0.69)"/>
  <path class="cls-1" d="M97.7,162.8a6.89,6.89,0,0,0,1.1-1.3c.3-.4.4-.9.7-1.2.5-.6-.1-.4.5-.4a8.8,8.8,0,0,1,1.5.5c1.1.4,1,.1.9,1.1a10.07,10.07,0,0,0,.1,3c.1.4.2,1,.3,1.6" transform="translate(-0.76 -0.69)"/>
  <path class="cls-1" d="M88.3,111.8a.1.1,0,0,0,.1.1,2.51,2.51,0,0,0,.4.7" transform="translate(-0.76 -0.69)"/>
  <path class="cls-1" d="M97.7,162.8a9,9,0,0,1-1.9,1.5c-.9.6-1.9,1.4-2.8.3a2.85,2.85,0,0,1-.3-1.9" transform="translate(-0.76 -0.69)"/>
  <path class="cls-1" d="M84.1,148.7a5.09,5.09,0,0,1-1.4.4c-1.3.2-4,.5-4.9-.4a1.49,1.49,0,0,1-.2-1.8" transform="translate(-0.76 -0.69)"/>
  <path class="cls-1" d="M82.7,140.9c.2.6.4,1.2.2,1.5a5.93,5.93,0,0,1-1.6.7,6.42,6.42,0,0,0-1.3,1,9.56,9.56,0,0,0-2.4,2.8" transform="translate(-0.76 -0.69)"/>
  <path class="cls-1" d="M102.9,166.1c.4,1.4,1.1,3,2.5,2.5.8-.3,1.6-1.6,2.2-2.8" transform="translate(-0.76 -0.69)"/>
  <path class="cls-1" d="M142.2,145.5c.6.9.7,1.8-.2,2.3-1,.7-3.8.4-5,.2-.2,0-.4-.1-.6-.1" transform="translate(-0.76 -0.69)"/>
  <path class="cls-1" d="M107.6,165.8a5.34,5.34,0,0,0,.6-1.4,7.84,7.84,0,0,0,.5-1.4,4.33,4.33,0,0,1,.1-.5c.2-1-.2-.7.8-.9.7-.1,2-.2,2.3.2.1.2,0,.6.1.8a5.78,5.78,0,0,0,.5,1.4,17.38,17.38,0,0,0,1,1.9" transform="translate(-0.76 -0.69)"/>
  <path class="cls-1" d="M76.1,138.6a.1.1,0,0,1-.1-.1c-.9-.4-2-1.1-1.4-2.3v-.1" transform="translate(-0.76 -0.69)"/>
  <path class="cls-1" d="M87.5,109.7a14.19,14.19,0,0,1-.5-2.2v-.6" transform="translate(-0.76 -0.69)"/>
  <path class="cls-1" d="M139.2,138.5a9.89,9.89,0,0,0-1.5-.1c-.4.2-.5,1.5-.6,2-.2,1.1-.3.8.6,1.2a12.28,12.28,0,0,1,4.6,3.9" transform="translate(-0.76 -0.69)"/>
  <path class="cls-1" d="M143.6,123.5a2.09,2.09,0,0,1-.6-.4,10.28,10.28,0,0,0-4.6-.6,7.72,7.72,0,0,0-1.5.2c-.3.1-.8.5-1,.4a9.73,9.73,0,0,1-1.1-2.3c-.1-.7-.1-.4.6-.9a1.76,1.76,0,0,0,.5-.4l.1-.1" transform="translate(-0.76 -0.69)"/>
  <path class="cls-1" d="M96.4,104v-.7c.1-.7.1-2.3.5-2.8,1-1,2-.1,2.7.5a13.39,13.39,0,0,1,2.7,3.1,5.36,5.36,0,0,1,.5,1.1c.3.9,0,.7.7.8a7.42,7.42,0,0,0,2.5-.5c-.3-1.9.7-7.8,3.2-7.5,1,.1,1.4,1.1,1.9,2a6.12,6.12,0,0,1,.5,1.2" transform="translate(-0.76 -0.69)"/>
  <path class="cls-1" d="M88.7,112.6a1.76,1.76,0,0,0,.4.5c.4.5.6.4.4.9a11.2,11.2,0,0,1-1.7,2c-.4,0-2.3-1.3-2.9-1.4a17,17,0,0,0-2.2-.4c-1.1-.1-2-.3-2.7.4-.1.1-.2.2-.2.3" transform="translate(-0.76 -0.69)"/>
  <path class="cls-1" d="M139.1,113.4c-.9-1-3.6-.3-4.7.1s-1.8.9-2.8,1.3c-.7.3-.1.4-.7.1-.3-.1-.8-.8-1.1-1.1-.8-.8-.8-.5-.3-1.4.1-.2.3-.4.5-.7" transform="translate(-0.76 -0.69)"/>
  <path class="cls-1" d="M132.9,149.7s.1,0,.2.3c.1.1.5.3.6.5a5.8,5.8,0,0,1,1,1.2,16.85,16.85,0,0,1,1.8,3.3" transform="translate(-0.76 -0.69)"/>
  <path class="cls-1" d="M130,111.8c.1-.1.2-.3.3-.4a14.19,14.19,0,0,0,1.2-4,3.65,3.65,0,0,0,0-1.8" transform="translate(-0.76 -0.69)"/>
  <path class="cls-1" d="M131.5,105.5a1.09,1.09,0,0,0-1-.8c-.7-.1-2,.7-2.7,1.1a11.08,11.08,0,0,0-3,2.2c-.1.1-.2.3-.3.4-.7.8-.2.7-1.1.4-.7-.2-1.8-.8-1.9-1.3a4.12,4.12,0,0,1,.3-.8.9.9,0,0,0,.1-.5" transform="translate(-0.76 -0.69)"/>
  <path class="cls-1" d="M139.2,138.5h.2a10.36,10.36,0,0,0,3.8-1.1c1-.4,2.3-.8,1.9-2.2l-.3-.6" transform="translate(-0.76 -0.69)"/>
  <path class="cls-1" d="M132.9,149.7h0" transform="translate(-0.76 -0.69)"/>
  <path class="cls-1" d="M139.1,113.4a.91.91,0,0,1,.3.7c.2,1.2-1.6,3.4-2.4,4.4a9.43,9.43,0,0,1-1,1" transform="translate(-0.76 -0.69)"/>
  <path class="cls-1" d="M84.1,148.7a6.76,6.76,0,0,1,1.7-.5,9.45,9.45,0,0,1,1.6,2.3c0,.2-.5.5-.8.7a10.63,10.63,0,0,0-.9,1.1,15.26,15.26,0,0,0-1.8,3.9" transform="translate(-0.76 -0.69)"/>
  <path class="cls-1" d="M121.9,106.3a10.07,10.07,0,0,0,.1-3,3.75,3.75,0,0,0-.1-1" transform="translate(-0.76 -0.69)"/>
  <path class="cls-1" d="M123.2,162.5a7.52,7.52,0,0,1-1.5-1.6c-.2-.3-.7-1.5-.9-1.5a7.5,7.5,0,0,0-2.5.9c-.4.4-.2.4-.1,1a8.62,8.62,0,0,1-.1,3.2,2.92,2.92,0,0,1-.2.9" transform="translate(-0.76 -0.69)"/>
  <path class="cls-1" d="M143.6,123.5c1.4,1.2-.9,3-2.1,3.9a17.61,17.61,0,0,1-2.3,1.4" transform="translate(-0.76 -0.69)"/>
  <path class="cls-1" d="M76.1,138.6a11.9,11.9,0,0,0,4.1,1.1h.4" transform="translate(-0.76 -0.69)"/>
  <path class="cls-1" d="M80.6,139.7h.6" transform="translate(-0.76 -0.69)"/>
  <path class="cls-1" d="M136.5,154.8a6,6,0,0,1,.2,1.2c-.1,2.3-3.3,1.3-5.6.2" transform="translate(-0.76 -0.69)"/>
  <path class="cls-1" d="M128,161.7h0c.1,1.2.3,2.3-.9,2.7-1,.4-1.7-.3-2.6-.9a11.32,11.32,0,0,1-1.3-1" transform="translate(-0.76 -0.69)"/>
  <path class="cls-1" d="M83,120.5a7.52,7.52,0,0,1,1.4.8,8.18,8.18,0,0,1-1,2.4c-.5.5-.1.3-1,.1a5.07,5.07,0,0,0-1.3-.2,11,11,0,0,0-4.4.7,2.87,2.87,0,0,0-1.3.8" transform="translate(-0.76 -0.69)"/>
  <path class="cls-1" d="M139.1,128.8c-.2.1-.4.1-.6.2s-.8,0-1,.2a8.31,8.31,0,0,0,.3,2.7c.2.3,1.1.2,1.7.3a14.76,14.76,0,0,1,3.5,1.3,10.81,10.81,0,0,1,1.8,1.1" transform="translate(-0.76 -0.69)"/>
  <path class="cls-1" d="M81.7,130.3a.31.31,0,0,0,.1.2,8.08,8.08,0,0,1-.1,1.5c-.1,1.5-.1,1.2-1.4,1.4a10,10,0,0,0-3.4,1.3,7.33,7.33,0,0,0-2.3,1.6" transform="translate(-0.76 -0.69)"/>
  <path class="cls-1" d="M87,107a1.37,1.37,0,0,1,1.7-1.4,8,8,0,0,1,2.5,1.1,8.26,8.26,0,0,1,2.8,2.1c.2.2.3.6.5.7.5.3,1.6-.4,2.1-.9.8-.6.6-.2.3-1.2-.1-.2-.1-.3-.2-.5s-.1-.2-.1-.3" transform="translate(-0.76 -0.69)"/>
  <path class="cls-1" d="M81.2,139.6h.2c1-.1.8-.3,1.1.7a3.93,3.93,0,0,0,.2.6" transform="translate(-0.76 -0.69)"/>
  <path class="cls-1" d="M128,161.7a12.17,12.17,0,0,0-.7-3.8c-.1-.3-.9-1.4-.9-1.6a8.27,8.27,0,0,1,2-1.6c.7-.2.3-.2,1,.4a12.85,12.85,0,0,0,1.9,1.2" transform="translate(-0.76 -0.69)"/>
  <path class="cls-1" d="M132.9,149.7v-.2c0-.3.7-1,.8-1.3.8-1.3.7-1,1.8-.6a2.92,2.92,0,0,0,.9.2" transform="translate(-0.76 -0.69)"/>
  <path class="cls-1" d="M96.6,106.7a12.29,12.29,0,0,1-.2-2.7" transform="translate(-0.76 -0.69)"/>
  <path class="cls-1" d="M207,125.7c.8.5.6,1.7.3,2.7a12.76,12.76,0,0,1-1.9,4.1c-.3.4-1,1-1,1.4a5.65,5.65,0,0,0,1.7,2,5.74,5.74,0,0,0,.7-.4,11.62,11.62,0,0,1,4.1-.9c.9-.1,2.4-.3,3,.4,1.2,1.1.1,2.2-.6,3.2a12.6,12.6,0,0,1-3,3.1,2.19,2.19,0,0,0-.5.3c-.2.1-.4.1-.5.3s.4,1.2.5,1.4c.5,1.3.6,1,1.7.9h.4" transform="translate(-0.76 -0.69)"/>
  <path class="cls-1" d="M207,125.7a1.45,1.45,0,0,0-.7-.2,5,5,0,0,0-2.4.7" transform="translate(-0.76 -0.69)"/>
  <path class="cls-1" d="M151.6,167.5h0" transform="translate(-0.76 -0.69)"/>
  <path class="cls-1" d="M211.8,144h1.4" transform="translate(-0.76 -0.69)"/>
  <path class="cls-1" d="M207.5,169.1h0" transform="translate(-0.76 -0.69)"/>
  <path class="cls-1" d="M142.4,144.5a4.05,4.05,0,0,0,.5.9" transform="translate(-0.76 -0.69)"/>
  <path class="cls-1" d="M156.6,183.3c-.1,1.3.6,2.3,2,1.9a13,13,0,0,0,2.6-1.4,30.84,30.84,0,0,0,2.7-2.4c.2-.1.2-.4.3-.5s1.1.6,1.4.7c1,.5.9.3.8,1.1a8,8,0,0,0-.3,1.5,12.48,12.48,0,0,0,.3,5.1c1.1,2.7,3.8-.5,4.8-1.8a7.63,7.63,0,0,0,1.7-3.2c.5.1,2.4.1,2.7.5.1.2-.1.5,0,.8.1.5.1,1.1.2,1.6.3,1.4.9,3.7,1.9,4.7,2,2,3.5-1.9,4-3.4a12.09,12.09,0,0,0,.5-1.8,8.62,8.62,0,0,1,.1-1.7,5.43,5.43,0,0,1,2.8-.2c.1.1.1.5.1.7a11.11,11.11,0,0,0,.7,1.6c.7,1.1,2.2,3.8,3.5,4a1.25,1.25,0,0,0,1.3-.4" transform="translate(-0.76 -0.69)"/>
  <path class="cls-1" d="M142.4,144.5c-.2-.6,0-1.2.9-1.7a5.41,5.41,0,0,1,1.5-.4" transform="translate(-0.76 -0.69)"/>
  <path class="cls-1" d="M142.9,145.4c.1.1.2.3.4.4.3.3.6.5.9.8" transform="translate(-0.76 -0.69)"/>
  <path class="cls-1" d="M210,177.2c0,.2.1.4,0,.5-.1,1.6-1.4,1.6-2.9,1.3" transform="translate(-0.76 -0.69)"/>
  <path class="cls-1" d="M201.5,183.2a3.63,3.63,0,0,1-.3,2.8,1.35,1.35,0,0,1-1.2.5" transform="translate(-0.76 -0.69)"/>
  <path class="cls-1" d="M200.1,186.6c-1.4,0-3.2-1.6-4.1-2.4a8,8,0,0,1-1.3-1.3c-.1-.1-.2-.4-.3-.5s-.1-.5-.3-.5-1.3.6-1.5.7c-1,.4-.9.2-.9,1a1.85,1.85,0,0,0,.2.7,10.87,10.87,0,0,1,.1,1.8,19.42,19.42,0,0,1-.1,2.2" transform="translate(-0.76 -0.69)"/>
  <path class="cls-1" d="M190.9,190.8a5.08,5.08,0,0,0,1-2.6" transform="translate(-0.76 -0.69)"/>
  <path class="cls-1" d="M212.6,169.9c1.3,0,2.9-.3,3.2-1.2" transform="translate(-0.76 -0.69)"/>
  <path class="cls-1" d="M156.8,181.9c-.1.4-.1.9-.2,1.3v.1" transform="translate(-0.76 -0.69)"/>
  <path class="cls-1" d="M203.9,126.2l-.6.3a18.12,18.12,0,0,0-3.3,2c-.6.4-.1.4-.8.2a5.27,5.27,0,0,1-1.5-1.1c-.2-.3-.3-.3-.3-.3" transform="translate(-0.76 -0.69)"/>
  <path class="cls-1" d="M207.5,169.1l-.3.3a3.36,3.36,0,0,0-.9,1.5c-.2.7-.2.3.3.8.3.4.8.8,1.1,1.2a14.17,14.17,0,0,1,2.3,4.2" transform="translate(-0.76 -0.69)"/>
  <path class="cls-1" d="M201.5,183.2c-.2-1-.5-1.9-.6-2.6a7.74,7.74,0,0,0-.7-1.6c-.1-.2-.5-.6-.5-.7,0-.3,1.6-1.7,1.9-1.8.5-.1,2.3,1.4,3.1,1.7a25,25,0,0,0,2.5.8" transform="translate(-0.76 -0.69)"/>
  <path class="cls-1" d="M207.5,169.1a.58.58,0,0,0,.4.1c1.1,0,2.3.7,3.4.7h1.3" transform="translate(-0.76 -0.69)"/>
  <path class="cls-1" d="M149,177.2a1.61,1.61,0,0,0,.7.4c.8.3,2.3-.3,3.1-.5a16.13,16.13,0,0,0,3.6-1.5c.4-.2.3-.4.7-.3s1.8,1.6,1.7,1.9-.8,1.1-.9,1.4a12.6,12.6,0,0,0-1,3.3" transform="translate(-0.76 -0.69)"/>
  <path class="cls-1" d="M215.8,168.8a1.9,1.9,0,0,0-.4-1.5,13,13,0,0,0-3.5-3.5c-.4-.3-.9-.4-1.3-.7s-.3,0-.4-.5.3-1.2.4-1.5c.4-1,0-.6.8-.7a22,22,0,0,0,3.7-.5c.2-.1.5-.1.8-.2" transform="translate(-0.76 -0.69)"/>
  <path class="cls-1" d="M215.9,159.6a5.45,5.45,0,0,0,1.9-.8" transform="translate(-0.76 -0.69)"/>
  <path class="cls-1" d="M144.7,142.4c.5-.1,1-.1,1.5-.2a22.88,22.88,0,0,1,3.7.1c.8,0,.5.3,1-.7a8.43,8.43,0,0,0,.6-1.4c-.1-.4-.1-.1-.4-.5a12.49,12.49,0,0,0-1.2-.9,13.57,13.57,0,0,1-3-4.1c-1.1-2.9,3-2.2,4.7-1.8a13.32,13.32,0,0,1,1.9.5c.3.1,1.2.8,1.5.8s1.4-1.2,1.6-1.7c.3-.7.2-.3-.2-.9a11,11,0,0,1-.9-1.4c-.6-1.2-1.9-3.8-1.6-5.1.7-2.4,4.2-.3,5.5.5a7.1,7.1,0,0,1,1.4,1l.6.6c.6.5.1.5.9.3.4-.1,1.8-1,1.9-1.4a5.9,5.9,0,0,0-.4-.8,11.63,11.63,0,0,1-.4-1.8,9.66,9.66,0,0,1-.1-2.4c0-1.2-.1-2.3.9-3a1.85,1.85,0,0,1,2,.2" transform="translate(-0.76 -0.69)"/>
  <path class="cls-1" d="M198.4,119.8c.1.3.2.6.3,1a12.9,12.9,0,0,1-.5,4.8c-.1.4-.5,1-.6,1.3a.58.58,0,0,1-.1.4" transform="translate(-0.76 -0.69)"/>
  <path class="cls-1" d="M185.4,116.1c.8-.8,1.7-1.1,2.6.1a13.39,13.39,0,0,1,.6,1.2" transform="translate(-0.76 -0.69)"/>
  <path class="cls-1" d="M177.9,117.3a15.56,15.56,0,0,1,1.1,2.4c.2.6.3,1.1.5,1.7.1.2-.1.7,0,.8a12.89,12.89,0,0,0,2.8.1c.1-.1.3-1.5.4-1.7a8.86,8.86,0,0,1,.8-1.7,11.14,11.14,0,0,1,1.9-2.7" transform="translate(-0.76 -0.69)"/>
  <path class="cls-1" d="M167.2,119.4a12.19,12.19,0,0,1,1.6,1.8,6.53,6.53,0,0,1,1,1.5c.1.1.1.4.2.5s.1.5.2.5a6.07,6.07,0,0,0,1.8-.5c.9-.4.6,0,.7-.8a2.2,2.2,0,0,0-.1-.8,8.81,8.81,0,0,1,.2-1.7c.2-1.3.7-4.2,2.2-4.7" transform="translate(-0.76 -0.69)"/>
  <path class="cls-1" d="M175.2,115.1a1.7,1.7,0,0,1,1,0,4.63,4.63,0,0,1,1.8,2.2" transform="translate(-0.76 -0.69)"/>
  <path class="cls-1" d="M166.1,118.5a3.13,3.13,0,0,1,1.1.9" transform="translate(-0.76 -0.69)"/>
  <path class="cls-1" d="M188.5,117.4a17.61,17.61,0,0,1,.6,3.8c0,.5-.1,1.1-.1,1.6,0,.8-.2.5.6.9a10.41,10.41,0,0,0,1.6.6c.4-.1.1,0,.4-.5a28.77,28.77,0,0,1,2.2-2.7c.3-.3.7-.6,1-.9" transform="translate(-0.76 -0.69)"/>
  <path class="cls-1" d="M198.4,119.8c-.4-.8-1.1-1.1-2.1-.5a14.63,14.63,0,0,0-1.3.9" transform="translate(-0.76 -0.69)"/>
  <path class="cls-1" d="M197.5,127.4h0" transform="translate(-0.76 -0.69)"/>
  <path class="cls-1" d="M143.6,157.4a12.56,12.56,0,0,0,3.8,1h.8c.8.1.5-.2.8.7a5.85,5.85,0,0,1,.4,1.9c-.1.2-.4.1-.5.2s-.4.1-.5.2a10.72,10.72,0,0,0-3.4,2.5c-.2.2-.4.3-.5.5" transform="translate(-0.76 -0.69)"/>
  <path class="cls-1" d="M213.2,144.1a18.43,18.43,0,0,1,2.5.5c1.1.3,2.9.6,2.4,2.3-.2.8-1.6,1.6-2.3,2a15.86,15.86,0,0,1-3.7,1.8c-.2.1-.7,0-.8.1a13.13,13.13,0,0,0,.1,2.8c.1.1,1.4.2,1.7.3a14.22,14.22,0,0,1,4.1,2c1.1.7,2,1.8.7,2.9a.35.35,0,0,1-.2.1" transform="translate(-0.76 -0.69)"/>
  <path class="cls-1" d="M151.6,167.5s0,.1.2.3a8.27,8.27,0,0,1,.9,1.6c.1.7.1.2-.3.8-.2.2-.5.4-.7.6a10.77,10.77,0,0,0-2.1,3" transform="translate(-0.76 -0.69)"/>
  <path class="cls-1" d="M144.2,146.6a18.08,18.08,0,0,0,2.9,1.9c.2.1,1.6.4,1.7.5a9.23,9.23,0,0,1-.3,2.8c-.1.1-.5,0-.8,0a15.34,15.34,0,0,0-3.8,1.2c-.7.3-2.3.9-2.6,1.6" transform="translate(-0.76 -0.69)"/>
  <path class="cls-1" d="M141.3,154.5h0c-.7,1.6.9,2.2,1.9,2.7.1.1.3.1.4.2" transform="translate(-0.76 -0.69)"/>
  <path class="cls-1" d="M149.6,173.7a2.51,2.51,0,0,1-.4.7c-.4.9-1,2-.3,2.7" transform="translate(-0.76 -0.69)"/>
  <path class="cls-1" d="M151.6,167.5h-.4c-.1,0-.4.2-.5.2a11.78,11.78,0,0,1-4.2.3c-.6-.1-1.3-.1-1.8-.2" transform="translate(-0.76 -0.69)"/>
  <path class="cls-1" d="M144.4,164.5c-.7.7-1.3,1.4-.8,2.4a1.33,1.33,0,0,0,1.1.8" transform="translate(-0.76 -0.69)"/>
  <path class="cls-1" d="M139.3,138.9a1.54,1.54,0,0,0-1.2,1.7c.2.8,1.8,2,2.5,2.6a20.28,20.28,0,0,0,1.8,1.3" transform="translate(-0.76 -0.69)"/>
  <path class="cls-1" d="M141.3,154.5a6.37,6.37,0,0,0-.7-.2" transform="translate(-0.76 -0.69)"/>
  <path class="cls-1" d="M212.6,169.9a1.86,1.86,0,0,0-.1,1c.2.5,1.1,1,1.5,1.4.6.7,1.1,1.4,1.6,2.1.6,1,2.1,2.8.6,3.8-.7.5-2.6-.1-3.5-.2a23.35,23.35,0,0,1-2.5-.7c-.1,0-.2-.1-.3-.1" transform="translate(-0.76 -0.69)"/>
  <path class="cls-1" d="M145.4,134.4a13,13,0,0,1-1-1.5c-.5-.8-1.4-1.9-1.3-2.9" transform="translate(-0.76 -0.69)"/>
  <path class="cls-1" d="M149.6,173.7c-.3-.4-.5-.7-.6-.7s-.6.3-.7.3a16,16,0,0,1-2.1.5c-1.7.3-6.7.9-5.3-2a12.49,12.49,0,0,1,3.7-4.2" transform="translate(-0.76 -0.69)"/>
  <path class="cls-1" d="M138.1,149.4c-1.3.6-2.8,1.5-1.4,2.8a11.09,11.09,0,0,0,3,1.7,3.55,3.55,0,0,1,.9.4" transform="translate(-0.76 -0.69)"/>
  <path class="cls-1" d="M144.4,164.5h-.6a15.86,15.86,0,0,1-5.3-.8c-.8-.3-1.2-.3-1.4-1.2s.2-1.1.9-1.7a24.76,24.76,0,0,1,2.6-1.9,7.22,7.22,0,0,1,2-.9c.2-.1.8-.1.9-.3a.37.37,0,0,0,.1-.3" transform="translate(-0.76 -0.69)"/>
  <path class="cls-1" d="M218.5,148.8c-.4.2-.9.4-1.3.6-.1.1-.6.1-.7.2a4.64,4.64,0,0,0,.1,2.6c.4.5,3.1.8,3.8,1.2a9.76,9.76,0,0,1,3,1.7c1.3,1.5-.6,2.3-1.8,2.9a24.91,24.91,0,0,1-3.7.9" transform="translate(-0.76 -0.69)"/>
  <path class="cls-1" d="M215.9,159.6a6.41,6.41,0,0,0-.2,2.2c.2.3,1.3.5,1.6.8,1.2.7,4.3,2.7,4.4,4.1.2,2.2-4.3,2.1-5.9,2" transform="translate(-0.76 -0.69)"/>
  <path class="cls-1" d="M143.1,130.1c0-.3.2-.5.5-.8.8-.7,2.5-.2,3.5,0a18.24,18.24,0,0,1,2.5.7,6.53,6.53,0,0,0,1.7.8c.3,0,1.4-1.2,1.6-1.6.3-.7.2-.2,0-.7a17.39,17.39,0,0,0-1.1-1.8c-.7-1.4-2.8-6-.1-6.1,1.6-.1,4.1,1.6,5.4,2.6.3.2,1,1.1,1.3,1.1a7.35,7.35,0,0,0,2.2-1.6,1.69,1.69,0,0,0-.3-.6,23.41,23.41,0,0,1-.8-5.2,5.92,5.92,0,0,1,.1-1.9,1.58,1.58,0,0,1,2.2-.2,17.09,17.09,0,0,1,2.6,2.1,12.17,12.17,0,0,1,1.5,1.7l.1.1" transform="translate(-0.76 -0.69)"/>
  <path class="cls-1" d="M138.1,149.4c.1,0,.1-.1.2-.1a27,27,0,0,1,4.9-1.2c.1,0,.6.1.7,0a5.92,5.92,0,0,0,.4-1.5" transform="translate(-0.76 -0.69)"/>
  <path class="cls-1" d="M145.4,134.4c.2.2.4.5.6.7.3.4,1.3.9,1.5,1.3.2.6-.7,2.4-1.4,2.5-.5.1-1.4-.3-2-.3a12.42,12.42,0,0,0-4.9.4" transform="translate(-0.76 -0.69)"/>
  <path class="cls-1" d="M207.2,179.1c.3.6.8,1.2,1.1,1.8.7,1.5,2.7,6-.1,5.9-1.7-.1-4-1.6-5.3-2.6-.4-.3-.9-.9-1.3-1" transform="translate(-0.76 -0.69)"/>
  <path class="cls-1" d="M200.1,186.6a20.87,20.87,0,0,1,.4,4.3c0,.5.1,1.3-.2,1.7-.7.9-1.6.5-2.3,0a24.33,24.33,0,0,1-2.5-2c-.5-.5-1-1.1-1.5-1.6-.8-1.2-.5-1.2-2.1-.6" transform="translate(-0.76 -0.69)"/>
  <path class="cls-1" d="M156.6,183.3c-.2.3-.3.6-.4.7-.5,1.5-1.7,5.2-.3,6.2s4.4-1.6,5.6-2.7c.3-.3.9-1.3,1.2-1.4.6-.2,2.4.7,2.5,1.4a15.17,15.17,0,0,1-.3,2.1,14.08,14.08,0,0,0,.1,2.9c.1,1.2.3,3.6,2.1,3,.9-.3,2-1.8,2.6-2.5a10.29,10.29,0,0,0,2.2-3.6c.6.1,2.4.2,2.7.6.1.1-.1.4,0,.6.2.6.1,1.4.3,2.1.4,1.5,1.5,6.2,3.7,4.7,1.3-.9,2.2-3.9,2.6-5.4.1-.4.1-1.4.3-1.6a8.17,8.17,0,0,1,2.7-.1c.1.1.1.6.2.7a17.61,17.61,0,0,0,2.6,4.4c.4.4.9,1.3,1.4,1.4a1.37,1.37,0,0,0,1.7-1.2,19.81,19.81,0,0,0,.8-3.3,6.6,6.6,0,0,0,.1-1.4" transform="translate(-0.76 -0.69)"/>
  <path class="cls-1" d="M156.8,181.9a8.7,8.7,0,0,0-1.1-.9c-.7-.5-.4-.4-.9-.3a17.39,17.39,0,0,0-1.8,1.1,20,20,0,0,1-2.6,1c-1.2.3-3.3,1.1-3.6-.7-.1-.9.9-2.5,1.3-3.3.3-.5.6-1.1.9-1.6" transform="translate(-0.76 -0.69)"/>
  <path class="cls-1" d="M203.9,126.2a3.07,3.07,0,0,1-1-1.2c0-.4.7-1.3.8-1.7a10.38,10.38,0,0,0,.4-1.3" transform="translate(-0.76 -0.69)"/>
  <path class="cls-1" d="M204.6,120.4a4.33,4.33,0,0,0,0-3c-1.2-1.9-4.9,1.2-6,2.2l-.2.2" transform="translate(-0.76 -0.69)"/>
  <path class="cls-1" d="M220.3,143.2a12.59,12.59,0,0,0-2.7-.4" transform="translate(-0.76 -0.69)"/>
  <path class="cls-1" d="M209.5,124.5a11.51,11.51,0,0,0-2.5,1.2" transform="translate(-0.76 -0.69)"/>
  <path class="cls-1" d="M167.2,119.4a1.42,1.42,0,0,0,.6-.2c1.6-.6,1.4-.4,1.3-1.8a14.77,14.77,0,0,1,.1-2.1,16.54,16.54,0,0,1,.7-3.2c.3-.9.4-1.5,1.6-1.4.7.1,1,.5,1.5,1.1a19,19,0,0,1,2.2,3.3" transform="translate(-0.76 -0.69)"/>
  <path class="cls-1" d="M188.5,117.4a5.82,5.82,0,0,1,.5-1.1c.4-.7,1-1.4,1.5-2.1s1.7-2.2,2.6-2.4c1.8-.3,1.8,2,1.9,3.2a13.13,13.13,0,0,1,.1,2.8c0,.6-.4,1.5-.3,2,0,.1.1.2.2.3" transform="translate(-0.76 -0.69)"/>
  <path class="cls-1" d="M177.9,117.3a4.33,4.33,0,0,0,.5-.1c.4-.2.3-1,.5-1.6a13.76,13.76,0,0,1,2.4-5.2c2.1-2.2,3.5,2.8,3.9,4.4.1.4.1.9.2,1.3" transform="translate(-0.76 -0.69)"/>
  <path class="cls-1" d="M231.3,100.9a7.46,7.46,0,0,1,1.7,1.4" transform="translate(-0.76 -0.69)"/>
  <path class="cls-1" d="M233,102.2a1.38,1.38,0,0,1,.3.4c.8,1.1.5,1.5,1.8.9.4-.2,1.6-.5,1.8-.9s0-.5-.2-1c-.1-.3-.2-.7-.3-1" transform="translate(-0.76 -0.69)"/>
  <path class="cls-1" d="M236.3,98.7a20,20,0,0,1,.5-2.6c.3-.8.4-1.4,1.3-1.5s1.1.3,1.7.9a8.3,8.3,0,0,1,1.9,2.7,19.48,19.48,0,0,1,.6,2.3c.3.8-.1.4.5.6a6.05,6.05,0,0,0,1.9,0c1.3-.1.8-.4,1-1.7a6.7,6.7,0,0,1,.7-1.8,8,8,0,0,1,2.2-2.9c1.6-1.1,2.3.5,2.7,1.9a7,7,0,0,1,.4,2.9c0,.6-.8,2.5-.7,2.7a7.92,7.92,0,0,0,2.8,1.3c.4-.1.7-1.2.9-1.6a8,8,0,0,1,1.7-1.5c.8-.5,2.5-1.7,3.5-1.6,1.8.3,1.2,2.5,1,3.6a9.23,9.23,0,0,1-.9,2.5,3,3,0,0,1-.5.7c-.2.3-.7.5-.8.8-.3.7-.3.1.1.9s1.2,1.8,1.9,1.7c.5-.1,1-.8,1.5-1a8.56,8.56,0,0,1,2.3-.5c1.2-.1,3-.3,3.7.7.8,1.2-.5,2.6-1.3,3.5a7.28,7.28,0,0,1-1.8,1.7,3.55,3.55,0,0,1-.9.4c-.3.1-1.1.2-1.3.5a7.67,7.67,0,0,0,.5,1.9c.4,1.6.4,1.1,1.9,1h.8a11.07,11.07,0,0,1,2.6.7c1.1.5,3.1,1.2,2.5,2.7-.3.9-2.3,1.7-3.2,2.1a5.85,5.85,0,0,1-2.2.5c-.5,0-1.5-.4-1.9-.2a6,6,0,0,0-.7,3c.2.4,1.8.7,2.5,1.2a8,8,0,0,1,2.1,2c.9,1.1,2.1,2.7.3,3.5a7.32,7.32,0,0,1-3.6.1,6.53,6.53,0,0,1-2-.5c-.4-.2-1.2-1-1.5-.9-.6.1-1.6,2-1.9,2.5a8.37,8.37,0,0,1,3,5.1c.3,1.5.1,3.1-1.8,2.7a14,14,0,0,1-3.3-1.5,8.06,8.06,0,0,1-1.4-1.2c-.8-1.1-.5-1.6-1.8-.9-.4.2-1.2.4-1.5.8s-.3.3,0,1.1a8,8,0,0,1-.1,5.5c-.6,1.9-1.8,2-3.1.6a12.42,12.42,0,0,1-1.9-2.6,10.55,10.55,0,0,1-.6-2.4c-.2-.5,0-.4-.3-.6a6.69,6.69,0,0,0-2,0c-1.5,0-1,.4-1.2,1.7a8.51,8.51,0,0,1-2.8,4.6c-2.5,2.1-3.4-2.9-3.3-4.7,0-.6.8-2.4.7-2.7a14.25,14.25,0,0,0-2.8-1.3c-.4.1-.7,1.1-1,1.5-.9,1.2-3.7,3.3-5.2,3.1-2.4-.3-.8-4.8-.1-6.1a1.79,1.79,0,0,1,.5-.7,5,5,0,0,1,.8-.7c.5-.8.5-.2,0-1s-1.3-1.8-1.9-1.7-1,.7-1.4,1c-1.4.7-4.9,1.2-6,.1-1.5-1.5,1.7-4.6,3-5.4a3.55,3.55,0,0,1,.9-.4c1.6-.6,1.3-.5.8-2.2-.4-1.5-.2-1.3-1.7-1.2a4.05,4.05,0,0,1-1.1,0c-1.6-.1-5.9-1.4-5.1-3.5.5-1.4,3.9-2.6,5.4-2.6.5,0,1.2.3,1.6.2s1.1-2.1.9-2.8-1.6-.8-2.4-1.2c-1.3-.9-4.9-4.2-2.6-5.4,1.4-.8,4.5-.3,5.9.4.6.3,1.1.9,1.6.8a7.25,7.25,0,0,0,1.8-2.5c0-.3-1.6-1.6-1.9-2.1-.8-1.6-2.4-6.6.9-5.5a10.44,10.44,0,0,1,2.4,1.1" transform="translate(-0.76 -0.69)"/>
  <path class="cls-1" d="M236.3,98.7v.7c0,.5.1.9.1,1.2" transform="translate(-0.76 -0.69)"/>
  <path class="cls-1" d="M252.1,88.5a13,13,0,0,1,1.3.3c.9.2.8.4,1.3-.2.9-1,1.4-2.3,2.5-3.3.6-.6,1.8-1.9,2.6-2,1.7-.2,1.7,1.6,1.7,2.7a12.52,12.52,0,0,1-.4,4.7,2.07,2.07,0,0,0-.2.6c0,.2-.2.3-.2.4.1.3,1.3.9,1.6,1,.9.4.4.4,1,0a4.62,4.62,0,0,1,.7-.7,13.77,13.77,0,0,1,4.2-2.5c1.2-.5,2.6-.5,2.7,1.1a8.7,8.7,0,0,1-.7,3.1c-.4,1.2-1.4,2.3-1.7,3.4-.2.6-.2,0,.1.7a5,5,0,0,0,1.2,1.3c.7.4.2.2.8,0s1.1-.6,1.7-.8c1.3-.5,4.4-1.5,5.5-.7,1.8,1.3-.8,4.4-1.8,5.5a9.27,9.27,0,0,1-1.4,1.4c-.1.1-.3.2-.4.3-.4.6-.2,0-.1.8a6.08,6.08,0,0,0,.9,1.8c.4.2,2.9-.4,3.7-.4a13.52,13.52,0,0,1,2.9.4c1.4.3,2.1,1.4,1.1,2.6a14.12,14.12,0,0,1-4,3.3,8.51,8.51,0,0,0-1.7.6,11.72,11.72,0,0,0,.4,2.7c.1.1.6,0,.8,0a13.16,13.16,0,0,1,4.3,1.2c1.1.5,2.3.8,2.3,2.1s-1.3,1.7-2.4,2.2a15.73,15.73,0,0,1-4.2,1.3c-.2,0-.6-.1-.8,0-.4.3-.3,2.6-.1,2.8a6.61,6.61,0,0,0,1.5.5,12.41,12.41,0,0,1,4.3,3.3c1.9,2.4-2.6,2.9-4.2,3-.8.1-3.3-.5-3.7-.2a4,4,0,0,0-.8,2.4c0,.1.6.4.7.4a15.38,15.38,0,0,1,1.3,1.2c1,1.1,3.9,4.2,2,5.5-1.1.8-4.1-.1-5.4-.5-.6-.2-1.1-.5-1.7-.7a2.09,2.09,0,0,0-.6-.4c-.4.1-1.5,1.8-1.8,2.2a8.86,8.86,0,0,1,2.1,3.3,14,14,0,0,1,.9,2.9c.3,1.6-.9,2.1-2.3,1.7a12.82,12.82,0,0,1-4.5-2.3c-.4-.3-1-1.1-1.3-1a3.3,3.3,0,0,0-2,1.6c0,.1.3.5.3.6a13.67,13.67,0,0,1,.7,4.5c0,1.2.2,2.9-1.4,3-.9.1-2-1.1-2.7-1.7-1.1-1-1.8-2.2-2.8-3.2-.2-.3-.1-.4-.5-.5a4.26,4.26,0,0,0-1.8.6c-.7.4-.4-.1-.5.6a7.57,7.57,0,0,0,.1,1.5,13.68,13.68,0,0,1-1.2,5.3c-1.6,2.5-3.8-1.5-4.5-2.9a13,13,0,0,1-.8-1.7c-.3-1,0-1.4-1.1-1.4a9.65,9.65,0,0,0-1.7,0c-.3.2-.1.1-.3.4a2.2,2.2,0,0,0-.1.8,12.66,12.66,0,0,1-.6,1.8c-.6,1.3-2.3,5.3-4.2,3.9-1.1-.8-1.6-4.1-1.7-5.4-.1-.5.1-1.2,0-1.7-.1-.7.1-.5-.9-.8-.3-.1-1.4-.6-1.7-.4-.1.1-.1.3-.2.4-.9,1-1.4,2.2-2.4,3.2-.6.6-1.8,2-2.6,2.1-1.6.2-1.7-1.5-1.8-2.5a12.35,12.35,0,0,1,.4-4.7,1.91,1.91,0,0,0,.3-.8c0-.1.3-.3.2-.4a6.38,6.38,0,0,0-1.4-.8c-1.2-.8-1.1-.4-2,.4a13,13,0,0,1-4.1,2.4c-1.1.5-2.6.8-2.9-.8a4.69,4.69,0,0,1,.4-2.2" transform="translate(-0.76 -0.69)"/>
  <path class="cls-1" d="M209.5,124.5a17.15,17.15,0,0,1-2.8-.8c-1-.4-2.2-.8-2.6-1.8" transform="translate(-0.76 -0.69)"/>
  <path class="cls-1" d="M251.7,84.5a7,7,0,0,0-1.3-3.6,1.55,1.55,0,0,0-1.4-.4" transform="translate(-0.76 -0.69)"/>
  <path class="cls-1" d="M245.3,87h0c-.1.3,0,.4-.1.6s-1.3,0-1.5,0h-.4" transform="translate(-0.76 -0.69)"/>
  <path class="cls-1" d="M209.5,124.5l1.4.3c.4.1.5-.1.7.2a3.38,3.38,0,0,1,.1,2.6c-.3.3-1.1.4-1.4.6a12.25,12.25,0,0,0-4.1,3.4c-1.8,2.5,2.7,2.8,4.3,2.8a13.4,13.4,0,0,0,2-.1c.3,0,.6-.2.9-.2.6,0,.3-.3.8.2a5.07,5.07,0,0,1,.9,1.8c0,.4,0,0-.3.4-.1.1-.4.3-.5.4a18.48,18.48,0,0,0-1.4,1.4c-1,1.2-3.6,4.3-1.7,5.5.1.1.3.1.4.2" transform="translate(-0.76 -0.69)"/>
  <path class="cls-1" d="M220.3,143.2a1.79,1.79,0,0,1,.5.7c0,.3-.1.1-.2.4-.4,1.2-1.3,2.2-1.8,3.5-.1.3-.2.6-.3,1" transform="translate(-0.76 -0.69)"/>
  <path class="cls-1" d="M211.8,144a3.3,3.3,0,0,0,1.4,0" transform="translate(-0.76 -0.69)"/>
  <path class="cls-1" d="M213.2,144.1a25.84,25.84,0,0,0,3.8-1l.6-.3" transform="translate(-0.76 -0.69)"/>
  <path class="cls-1" d="M204.6,120.4a10.42,10.42,0,0,1,1.8-1,13.35,13.35,0,0,1,4.3-1.3c.1,0,.5.1.6,0s.8-2.4.5-2.7c-.1-.2-1.4-.4-1.6-.5a13.57,13.57,0,0,1-4.1-3,1.49,1.49,0,0,1,.7-2.7,15.67,15.67,0,0,1,3-.5,7.39,7.39,0,0,1,2.1,0,4.5,4.5,0,0,1,.8.2" transform="translate(-0.76 -0.69)"/>
  <path class="cls-1" d="M204.6,120.4a1.57,1.57,0,0,0-.5,1.5v.1" transform="translate(-0.76 -0.69)"/>
  <text class="cls-2" transform="matrix(-1, 0, 0, 1, 243.22, 55.85)">T&amp;PIS2018v0.7</text>
  <text class="cls-3" transform="matrix(-1, 0, 0, 1, 242.19, 62.38)">S&amp;H2P</text>
  <g id="outerSmooth">
    <path d="M239.6,129.6a.47.47,0,0,0-.4-.6,1.88,1.88,0,0,0-.8.2,1.07,1.07,0,0,0-.6-1.4,2.25,2.25,0,0,1,1.4-.6,2.54,2.54,0,0,0,1.6-1.6c.3-.9.1-2,.8-2.6.3-.2.7-.4.8-.8-.3.1-.4.4-.7.5s-.7-.1-.6-.3a1,1,0,0,1-.7.4.44.44,0,0,1-.1-.8.83.83,0,0,1-.8.3c-.3,0-.5-.4-.3-.6s.4-.2.5-.4a1.23,1.23,0,0,1-1.3.1c-.1,0-.1-.1-.1-.2a.22.22,0,0,1,.2-.2c.3-.2.6-.3.9-.5a2.92,2.92,0,0,1-1.6-.1c-.1,0-.1-.1-.2-.1s0-.3.2-.3.3,0,.4,0a2.39,2.39,0,0,0,1.4-.5,4.11,4.11,0,0,1-2.2,0c-.2-.1-.5-.3-.4-.5a.37.37,0,0,1,.3-.1c.4,0,.9-.1,1.3-.1a4.55,4.55,0,0,1-1.9-.8c-.2-.1-.4-.4-.3-.5a.6.6,0,0,1,.4-.1l1.7.3a4.45,4.45,0,0,1-2.5-1.9c-.1-.2-.1-.5.1-.5a.37.37,0,0,1,.3.1,14.63,14.63,0,0,0,1.3.9,5.47,5.47,0,0,1-1.7-2.8.37.37,0,0,1,.1-.3c.2-.2.5.1.6.3a6.14,6.14,0,0,0,2.5,2.3,9.5,9.5,0,0,1,1.7,1,2.61,2.61,0,0,1,1.1,1.6.37.37,0,0,0,.1.3c.2.3.7.2.9-.1s.1-.7.1-1.1a5.54,5.54,0,0,1,.2-1.8c.2-.8.8-1.6,1.6-1.6s1.4.8,2.2.7c.1,0,.3,0,.3.1v.2a1.16,1.16,0,0,1-1,.4,5.64,5.64,0,0,0-1.2.4,1.17,1.17,0,0,0-.5,1.1,4.35,4.35,0,0,0,.4.7c.2.3.5.5.7.8s.7.7,1.1.4.3-.5.4-.8c.2-.6.8-.9,1.4-1.2a17.52,17.52,0,0,0,3.5-2,15.38,15.38,0,0,1,1.3-1.2c.1-.1.4-.2.5-.1s.1.1.1.2a2.11,2.11,0,0,1-.8,1.7,16.61,16.61,0,0,0-1.4,1.3c.5-.3,1-.6,1.6-.9a.3.3,0,0,1,.4,0v.2a3.75,3.75,0,0,1-3.1,2.1c.7-.1,1.3-.1,2-.2.2,0,.5,0,.5.2a2.29,2.29,0,0,1-1.7.8c.1.3.6.1.8.3s-.1.5-.4.6a3.08,3.08,0,0,1-1.9,0c.4.1.8.3,1.2.4.2.1.4.2.4.4s-.2.3-.4.3a3.4,3.4,0,0,1-1-.1,1,1,0,0,0,.5.4c.2.1.3.4.1.5h-.2a2.28,2.28,0,0,1-1.1-.3c0,.3.5.5.5.8s-.2.3-.4.3-.7-.5-.8-.6c.2.2.3,1,0,1a1,1,0,0,1-.7-.4l-.3-.3c.1.3.5.5.3.8-.3.1-.7-.2-.9-.4a1.61,1.61,0,0,1-.4-.7c-.1-.1-.2.2-.1.3.3.4.7.8,1,1.2a1.79,1.79,0,0,1,.4,1.4,4.33,4.33,0,0,1-.1.5.55.55,0,0,0,.3.5,4.61,4.61,0,0,0,2.6,1.5v.4a.71.71,0,0,0-.7.8c0,.1.1.2,0,.3s-.2,0-.3,0a1.15,1.15,0,0,0-1.2.4c-.4-.4-.2-1-.2-1.6a1.39,1.39,0,0,0-.7-1.2c-.2-.2-.5-.3-.7-.5a2.1,2.1,0,0,1-.4-1.1c-.1-.4-.4-.8-.8-.7,0,1.3.9,2.3,1.4,3.5a.82.82,0,0,1,.1.7c-.1.5-.6.7-1.1.8s-1,.3-1.5.4a.64.64,0,0,1-.6,0,.52.52,0,0,0-.4-.2.6.6,0,0,0-.4-.1,5,5,0,0,1-1.3-.5c-.1-.1-.3-.2-.4-.3-.3-.4-.1-1,.2-1.5.5-.8,1-1.6,1.4-2.4a.3.3,0,0,0,0-.4h-.2a1.42,1.42,0,0,0-.9.8c-.1.2-.1.4-.2.6-.3.6-1.2.8-1.5,1.4a5,5,0,0,0-.2,1.2c-.3.8-.4,1.3-.8,1.4" transform="translate(-0.76 -0.69)"/>
  </g>
</svg>
